<svg id="4th-grade-curriculum/빅데이터" enable-background="new 0 0 64 64" height="512" viewBox="0 0 64 64" width="512" xmlns="http://www.w3.org/2000/svg"><g fill="#ffeaa7"><path d="m62 2v12h-12v-6-6z"/><path d="m38 8v6h-6-6v-6-6h12z"/><path d="m14 8v6h-12v-12h12z"/></g><path d="m12 28v18c0 1.1.9 2 2 2h36c1.1 0 2-.9 2-2v-18z" fill="#e6e9ed"/><path d="m52 22v6h-40v-4c0-1.1.9-2 2-2h18 2l1.41-1.41c.38-.38.89-.59 1.42-.59h13.17c1.1 0 2 .9 2 2z" fill="#ff826e"/><path d="m44.41 42.59c.37.36.59.86.59 1.41 0 1.1-.9 2-2 2h-22c-.55 0-1.05-.22-1.41-.59-.37-.36-.59-.86-.59-1.41 0-1.1.9-2 2-2h22c.55 0 1.05.22 1.41.59z" fill="#5cd6b3"/><path d="m44.41 52.59c.37.36.59.86.59 1.41 0 1.1-.9 2-2 2h-22c-.55 0-1.05-.22-1.41-.59-.37-.36-.59-.86-.59-1.41 0-1.1.9-2 2-2h22c.55 0 1.05.22 1.41.59z" fill="#5cd6b3"/><path d="m48 58v2c0 1.1-.9 2-2 2h-28c-1.1 0-2-.9-2-2v-2c0-1.1.9-2 2-2h3 22 3c1.1 0 2 .9 2 2z" fill="#fcd770"/><path d="m48 48v2c0 1.1-.9 2-2 2h-3-22-3c-1.1 0-2-.9-2-2v-2c0-1.1.9-2 2-2h3 22 3c1.1 0 2 .9 2 2z" fill="#fcd770"/><path d="m48 38v2c0 1.1-.9 2-2 2h-3-22-3c-1.1 0-2-.9-2-2v-2c0-1.1.9-2 2-2h28c1.1 0 2 .9 2 2z" fill="#fcd770"/><path d="m47 23h2v2h-2z"/><path d="m43 23h2v2h-2z"/><path d="m39 23h2v2h-2z"/><path d="m5 5h6v2h-6z"/><path d="m5 9h6v2h-6z"/><path d="m29 5h6v2h-6z"/><path d="m29 9h6v2h-6z"/><path d="m63 15v-14h-14v6h-10v-6h-14v6h-10v-6h-14v14h14v-6h10v6h6v6h-17c-1.654 0-3 1.346-3 3v22c0 1.654 1.346 3 3 3h1v1c0 1.654 1.346 3 3 3h.184c-.112.314-.184.648-.184 1s.072.686.184 1h-.184c-1.654 0-3 1.346-3 3v2c0 1.654 1.346 3 3 3h28c1.654 0 3-1.346 3-3v-2c0-1.654-1.346-3-3-3h-.184c.112-.314.184-.648.184-1s-.072-.686-.184-1h.184c1.654 0 3-1.346 3-3v-1h1c1.654 0 3-1.346 3-3v-24c0-1.654-1.346-3-3-3h-13.172c-.801 0-1.555.312-2.121.879l-1.121 1.121h-.586v-6h6v-6h10v6zm-50-2h-10v-10h10zm34 45v2c0 .551-.448 1-1 1h-28c-.552 0-1-.449-1-1v-2c0-.551.448-1 1-1h3 22 3c.552 0 1 .449 1 1zm-3-4c0 .551-.448 1-1 1h-22c-.552 0-1-.449-1-1s.448-1 1-1h22c.552 0 1 .449 1 1zm3-4c0 .551-.448 1-1 1h-3-22-3c-.552 0-1-.449-1-1v-2c0-.551.448-1 1-1h3 22 3c.552 0 1 .449 1 1zm-27-6c0-.551.448-1 1-1h22c.552 0 1 .449 1 1s-.448 1-1 1h-22c-.552 0-1-.449-1-1zm23-3h-22-3c-.552 0-1-.449-1-1v-2c0-.551.448-1 1-1h28c.552 0 1 .449 1 1v2c0 .551-.448 1-1 1zm7 6h-1.184c-.414-1.161-1.514-2-2.816-2h-.184c.112-.314.184-.648.184-1s-.072-.686-.184-1h.184c1.654 0 3-1.346 3-3v-2c0-1.654-1.346-3-3-3h-28c-1.654 0-3 1.346-3 3v2c0 1.654 1.346 3 3 3h.184c-.112.314-.184.648-.184 1s.072.686.184 1h-.184c-1.302 0-2.402.839-2.816 2h-1.184c-.552 0-1-.449-1-1v-17h38v17c0 .551-.448 1-1 1zm-15.586-24 1.707-1.707c.187-.186.444-.293.707-.293h13.172c.552 0 1 .449 1 1v5h-38v-3c0-.551.448-1 1-1zm2.586-10h-10v-10h10zm14-10h10v10h-10z"/><path d="m53 5h6v2h-6z"/><path d="m53 9h6v2h-6z"/><path d="m15 31h2v2h-2z"/><path d="m19 31h2v2h-2z"/><path d="m23 31h2v2h-2z"/></svg>