<svg id="4th-grade-curriculum/클라우드컴퓨팅" enable-background="new 0 0 64 64" height="512" viewBox="0 0 64 64" width="512" xmlns="http://www.w3.org/2000/svg"><path d="m31 58v4h-20v-4h2 16z" fill="#fcd770"/><path d="m30.75 12.01c.08-.01.17-.01.25-.01 2.76 0 5 2.24 5 5s-2.24 5-5 5h-1-10c0-.55-.22-1.05-.59-1.41-.36-.37-.86-.59-1.41-.59-1.1 0-2 .9-2 2h-9c-2.76 0-5-2.24-5-5s2.24-5 5-5h.08c.48-2.84 2.94-5 5.92-5 .85 0 1.67.18 2.4.5 1.05-3.19 4.05-5.5 7.6-5.5 4.42 0 8 3.58 8 8 0 .69-.09 1.37-.25 2.01z" fill="#e6e9ed"/><path d="m28 36c0-1.1.9-2 2-2 .55 0 1.05.22 1.41.59.37.36.59.86.59 1.41v13c0 1.3-.42 2.56-1.2 3.6l-1.8 2.4v3h-16v-3l-3.4-7c-.4-.69-.65-1.45-.75-2.23l-.69-5.54c-.11-.84-.4-1.64-.87-2.34l-1.03-1.55c-.17-.25-.26-.54-.26-.85 0-.85.69-1.53 1.54-1.53 1.3 0 2.5.46 3.45 1.23.95.78 1.63 1.87 1.88 3.14.54 2.69 1.13 5.63 1.13 5.63h1l.58-1.16c.28-.55.42-1.17.42-1.79v-19.01c0-1.1.9-2 2-2 .55 0 1.05.22 1.41.59.37.36.59.86.59 1.41v12c0-1.1.9-2 2-2 .55 0 1.05.22 1.41.59.37.36.59.86.59 1.41 0-1.1.9-2 2-2 .55 0 1.05.22 1.41.59.37.36.59.86.59 1.41z" fill="#f0d0b4"/><g fill="#969faa"><path d="m48 14h8v4h-8z"/><path d="m48 36h8v4h-8z"/><path d="m48 58h8v4h-8z"/></g><path d="m62 54v2c0 1.1-.9 2-2 2h-4-8-4c-1.1 0-2-.9-2-2v-2z" fill="#ccd1d9"/><path d="m62 32v2c0 1.1-.9 2-2 2h-4-8-4c-1.1 0-2-.9-2-2v-2z" fill="#ccd1d9"/><path d="m62 10v2c0 1.1-.9 2-2 2h-4-8-4c-1.1 0-2-.9-2-2v-2z" fill="#ccd1d9"/><path d="m62 48v6h-20v-2-4c0-1.1.9-2 2-2h16c1.1 0 2 .9 2 2z" fill="#69d6f4"/><path d="m62 26v6h-20v-2-4c0-1.1.9-2 2-2h16c1.1 0 2 .9 2 2z" fill="#69d6f4"/><path d="m62 4v6h-20v-2-4c0-1.1.9-2 2-2h16c1.1 0 2 .9 2 2z" fill="#69d6f4"/><path d="m26 10h2c0-2.757-2.243-5-5-5v2c1.654 0 3 1.346 3 3z"/><path d="m60 15c1.654 0 3-1.346 3-3v-8c0-1.654-1.346-3-3-3h-16c-1.654 0-3 1.346-3 3v3h-3c-1.654 0-3 1.346-3 3v2.54c-.843-.757-1.899-1.277-3.068-1.461.043-.356.068-.717.068-1.079 0-4.962-4.038-9-9-9-3.553 0-6.722 2.069-8.175 5.242-.593-.161-1.204-.242-1.825-.242-3.161 0-5.865 2.08-6.719 5.047-2.97.357-5.281 2.888-5.281 5.953 0 3.309 2.691 6 6 6h8v18.014c0 .455-.105.91-.305 1.319l-.839-4.194c-.601-3.001-3.259-5.18-6.32-5.18-1.397 0-2.534 1.137-2.535 2.535 0 .502.147.988.426 1.406l1.029 1.543c.381.571.627 1.234.713 1.915l.691 5.534c.115.921.407 1.798.837 2.546l3.303 6.792v1.77h-2v6h22v-6h-2v-1.667l1.6-2.133c.903-1.204 1.4-2.695 1.4-4.2v-13c0-1.654-1.346-3-3-3-.395 0-.77.081-1.116.22-.345-1.275-1.501-2.22-2.884-2.22-.771 0-1.468.301-2 .78-.532-.48-1.229-.78-2-.78-.352 0-.686.072-1 .184v-8.184h8v5c0 1.654 1.346 3 3 3h3v19c0 1.654 1.346 3 3 3h3v3c0 1.654 1.346 3 3 3h3v2h-2v2h14v-2h-2v-2h3c1.654 0 3-1.346 3-3v-8c0-1.654-1.346-3-3-3h-16c-1.654 0-3 1.346-3 3v3h-3c-.551 0-1-.449-1-1v-19h4v3c0 1.654 1.346 3 3 3h3v2h-2v2h14v-2h-2v-2h3c1.654 0 3-1.346 3-3v-8c0-1.654-1.346-3-3-3h-16c-1.654 0-3 1.346-3 3v3h-4v-19c0-.551.449-1 1-1h3v3c0 1.654 1.346 3 3 3h3v2h-2v2h14v-2h-2v-2zm-5 46h-6v-2h6zm5-4h-16c-.551 0-1-.449-1-1v-1h18v1c0 .551-.449 1-1 1zm-16-10h16c.551 0 1 .449 1 1v5h-18v-5c0-.551.449-1 1-1zm11-8h-6v-2h6zm5-4h-16c-.551 0-1-.449-1-1v-1h18v1c0 .551-.449 1-1 1zm-16-10h16c.551 0 1 .449 1 1v5h-18v-5c0-.551.449-1 1-1zm-41-8c0-2.206 1.794-4 4-4s4 1.794 4 4h2c0-2.841-1.986-5.221-4.642-5.839.738-1.877 2.546-3.161 4.642-3.161.691 0 1.365.141 2.002.42l1.008.441.343-1.045c.946-2.88 3.617-4.816 6.647-4.816 3.86 0 7 3.14 7 7 0 .373-.039.741-.097 1.105-2.786.518-4.903 2.962-4.903 5.895h2c0-2.206 1.794-4 4-4s4 1.794 4 4-1.794 4-4 4h-10.184c-.414-1.161-1.514-2-2.816-2s-2.402.839-2.816 2h-8.184c-2.206 0-4-1.794-4-4zm27 44h-18v-2h18zm-8-28c.551 0 1 .449 1 1v4h2v-4c0-.551.449-1 1-1s1 .449 1 1v2 2h2v-2c0-.551.449-1 1-1s1 .449 1 1v13c0 1.075-.355 2.141-1 3l-2 2.667v2.333h-14v-2.23l-3.537-7.266c-.329-.576-.538-1.202-.62-1.86l-.691-5.534c-.124-.988-.481-1.948-1.033-2.776l-1.029-1.544c-.059-.088-.09-.191-.09-.297 0-.295.24-.535.535-.535 2.112 0 3.945 1.502 4.359 3.573l1.286 6.427h2.438l.854-1.708c.345-.691.528-1.464.528-2.236v-19.014c0-.551.449-1 1-1s1 .449 1 1v12 4h2v-4c0-.551.449-1 1-1zm10-4c-.551 0-1-.449-1-1v-5c1.538 0 2.937-.586 4-1.54v7.54zm12-26h16c.551 0 1 .449 1 1v5h-18v-5c0-.551.449-1 1-1zm-1 9v-1h18v1c0 .551-.449 1-1 1h-16c-.551 0-1-.449-1-1zm12 5h-6v-2h6z"/></svg>