<svg height="479pt" viewBox="-39 0 479 479.9986" width="479pt" xmlns="http://www.w3.org/2000/svg"><path d="m312.5 56c-12.367188-.023438-24.527344 3.175781-35.28125 9.277344-11.140625-37.820313-48.179688-61.886719-87.265625-56.699219s-68.566406 38.082031-69.453125 77.5c-21.925781-17.589844-52.761719-18.816406-76.011719-3.019531-23.253906 15.792968-33.476562 44.914062-25.203125 71.777344 8.273438 26.863281 33.105469 45.183593 61.214844 45.164062h232c39.765625 0 72-32.238281 72-72 0-39.765625-32.234375-72-72-72zm0 0" fill="#006df0"/><path d="m104.5 200h-24c-35.347656 0-64-28.65625-64-64 0-35.347656 28.652344-64 64-64 4 .003906 7.988281.378906 11.917969 1.117188-32.476563 6.160156-54.925781 36.039062-51.789063 68.949218 3.132813 32.90625 30.8125 58.015625 63.871094 57.933594zm0 0" fill="#005ece"/><path d="m200.5 8c3.9375-.007812 7.871094.316406 11.757812.957031-33.59375 5.210938-60.234374 31.066407-66.445312 64.488281-.386719 2.539063-1.96875 4.734376-4.25 5.910157-2.285156 1.171875-4.992188 1.179687-7.277344.019531-4.03125-2.109375-8.277344-3.777344-12.664062-4.976562 6.664062-38.359376 39.945312-66.371094 78.878906-66.398438zm0 0" fill="#005ece"/><path d="m288.5 184v32h-34.320312c-1.097657 3.6875-2.574219 7.25-4.398438 10.636719l24.238281 24.242187-22.640625 22.640625-24.238281-24.242187c-3.386719 1.828125-6.953125 3.300781-10.640625 4.402344v34.320312h-32v-34.320312c-3.6875-1.101563-7.253906-2.574219-10.640625-4.402344l-24.238281 24.242187-22.640625-22.640625 24.238281-24.242187c-1.828125-3.386719-3.300781-6.949219-4.398438-10.636719h-34.320312v-32h34.320312c1.097657-3.6875 2.570313-7.253906 4.398438-10.640625l-24.238281-24.242187 22.640625-22.636719 24.238281 24.238281c3.386719-1.828125 6.953125-3.300781 10.640625-4.398438v-34.320312h32v34.320312c3.6875 1.097657 7.253906 2.570313 10.640625 4.398438l24.238281-24.238281 22.640625 22.636719-24.238281 24.242187c1.824219 3.386719 3.300781 6.953125 4.398438 10.640625zm0 0" fill="#ed1c24"/><path d="m224.5 200c0 13.253906-10.746094 24-24 24s-24-10.746094-24-24c0-13.257812 10.746094-24 24-24s24 10.742188 24 24zm0 0" fill="#f1f2f2"/><g fill="#ffcd00"><path d="m160.5 472h80c4.417969 0 8-3.582031 8-8v-48c0-4.417969-3.582031-8-8-8h-48l-16-16h-16c-4.417969 0-8 3.582031-8 8v64c0 4.417969 3.582031 8 8 8zm0 0"/><path d="m8.5 400v64c0 4.417969 3.582031 8 8 8h80c4.417969 0 8-3.582031 8-8v-48c0-4.417969-3.582031-8-8-8h-48l-16-16h-16c-4.417969 0-8 3.582031-8 8zm0 0"/><path d="m384.5 472c4.417969 0 8-3.582031 8-8v-48c0-4.417969-3.582031-8-8-8h-48l-16-16h-16c-4.417969 0-8 3.582031-8 8v64c0 4.417969 3.582031 8 8 8zm0 0"/></g><path d="m8.5 424v40c0 4.417969 3.582031 8 8 8h48c-30.953125 0-56-21.472656-56-48zm0 0" fill="#ddb200"/><path d="m152.5 424v40c0 4.417969 3.582031 8 8 8h48c-30.953125 0-56-21.472656-56-48zm0 0" fill="#ddb200"/><path d="m296.5 424v40c0 4.417969 3.582031 8 8 8h48c-30.953125 0-56-21.472656-56-48zm0 0" fill="#ddb200"/><path d="m200.5 168c-17.671875 0-32 14.324219-32 32 0 17.671875 14.328125 32 32 32s32-14.328125 32-32c0-17.675781-14.328125-32-32-32zm0 48c-8.835938 0-16-7.164062-16-16 0-8.839844 7.164062-16 16-16s16 7.160156 16 16c0 8.835938-7.164062 16-16 16zm0 0"/><path d="m240.5 400h-44.6875l-16-16h-19.3125c-8.835938 0-16 7.160156-16 16v64c0 8.835938 7.164062 16 16 16h80c8.835938 0 16-7.164062 16-16v-48c0-8.839844-7.164062-16-16-16zm0 64h-80v-64h12.6875l16 16h51.3125zm0 0"/><path d="m96.5 400h-44.6875l-16-16h-19.3125c-8.835938 0-16 7.160156-16 16v64c0 8.835938 7.164062 16 16 16h80c8.835938 0 16-7.164062 16-16v-48c0-8.839844-7.164062-16-16-16zm0 64h-80v-64h12.6875l16 16h51.3125zm0 0"/><path d="m384.5 400h-44.6875l-16-16h-19.3125c-8.835938 0-16 7.160156-16 16v64c0 8.835938 7.164062 16 16 16h80c8.835938 0 16-7.164062 16-16v-48c0-8.839844-7.164062-16-16-16zm0 64h-80v-64h12.6875l16 16h51.3125zm0 0"/><path d="m352.5 376v-40h-144v-24h-16v24h-144v40h16v-24h128v24h16v-24h128v24zm0 0"/><path d="m80.5 208h24v16h36.65625c.136719.335938.261719.664062.40625.984375l-25.863281 25.894531 33.921875 33.917969 25.894531-25.894531.984375.410156v36.6875h48v-36.65625l.984375-.410156 25.894531 25.863281 33.921875-33.917969-25.898437-25.894531c.144531-.320313.273437-.648437.410156-.984375h36.6875v-16h16c32.386719.011719 61.585938-19.5 73.960938-49.429688 12.378906-29.925781 5.488281-64.363281-17.445313-87.226562-22.9375-22.867188-57.394531-29.648438-87.285156-17.175781-14.992188-36-51.890625-57.839844-90.664063-53.660157-38.773437 4.179688-70.171875 33.378907-77.152344 71.746094-26.492187-13.914062-58.828124-9.988281-81.226562 9.855469-22.394531 19.847656-30.183594 51.476563-19.558594 79.453125 10.625 27.972656 37.445313 46.460938 67.371094 46.4375zm200 0h-32.25l-1.726562 5.671875c-.9375 3.164063-2.199219 6.226563-3.769532 9.132813l-2.863281 5.257812 22.816406 22.816406-11.328125 11.328125-22.824218-22.824219-5.253907 2.878907c-2.90625 1.5625-5.964843 2.820312-9.128906 3.761719l-5.671875 1.726562v32.25h-16v-32.25l-5.671875-1.726562c-3.164063-.941407-6.222656-2.199219-9.128906-3.761719l-5.257813-2.878907-22.820312 22.824219-11.328125-11.328125 22.8125-22.816406-2.863281-5.257812c-1.566407-2.90625-2.828126-5.96875-3.765626-9.132813l-1.730468-5.671875h-32.246094v-16h32.246094l1.730468-5.671875c.9375-3.167969 2.199219-6.230469 3.765626-9.136719l2.863281-5.257812-22.8125-22.816406 11.328125-11.328126 22.820312 22.824219 5.257813-2.878906c2.90625-1.5625 5.964843-2.820313 9.128906-3.761719l5.671875-1.726562v-32.246094h16v32.246094l5.671875 1.726562c3.164063.941406 6.222656 2.199219 9.128906 3.761719l5.253907 2.878906 22.824218-22.824219 11.328125 11.328126-22.816406 22.816406 2.863281 5.257812c1.570313 2.90625 2.832032 5.96875 3.769532 9.136719l1.726562 5.671875h32.25zm-200-128c12.722656.019531 25.0625 4.363281 34.992188 12.320312 2.371093 1.90625 5.621093 2.300782 8.382812 1.015626 2.757812-1.285157 4.550781-4.023438 4.625-7.066407.804688-35.476562 27.335938-65.078125 62.511719-69.742187 35.175781-4.667969 68.507812 16.992187 78.535156 51.03125.695313 2.339844 2.421875 4.234375 4.6875 5.144531s4.824219.738281 6.945313-.472656c9.550781-5.410157 20.34375-8.246094 31.320312-8.230469 35.34375 0 64 28.652344 64 64 0 35.34375-28.65625 64-64 64h-16v-16h-36.65625c-.136719-.335938-.265625-.664062-.410156-.984375l25.867187-25.898437-33.921875-33.917969-25.894531 25.894531-.984375-.4375v-36.65625h-48v36.65625l-.984375.40625-25.894531-25.863281-33.921875 33.917969 25.894531 25.898437c-.140625.320313-.269531.648437-.40625.984375h-36.6875v16h-24c-30.929688 0-56-25.074219-56-56 0-30.929688 25.070312-56 56-56zm0 0"/></svg>