<?xml version="1.0" encoding="iso-8859-1"?>
<!-- Generator: Adobe Illustrator 19.0.0, SVG Export Plug-In . SVG Version: 6.00 Build 0)  -->
<svg version="1.1" id="Capa_1" xmlns="http://www.w3.org/2000/svg" xmlns:xlink="http://www.w3.org/1999/xlink" x="0px" y="0px"
	 viewBox="0 0 512 512" style="enable-background:new 0 0 512 512;" xml:space="preserve">
<g>
	<g transform="translate(1 1)">
		<g>
			<circle style="fill:#02A9F4;" cx="109.933" cy="118.467" r="25.6"/>
			<circle style="fill:#02A9F4;" cx="391.533" cy="391.533" r="25.6"/>
		</g>
		<rect x="84.333" y="417.133" style="fill:#3F51B5;" width="51.2" height="68.267"/>
		<path style="fill:#607D8B;" d="M16.067,280.6H203.8c4.713,0,8.533,3.82,8.533,8.533v136.533c0,4.713-3.821,8.533-8.533,8.533
			H16.067c-4.713,0-8.533-3.82-8.533-8.533V289.133C7.533,284.42,11.354,280.6,16.067,280.6z"/>
		<path style="fill:#CFD8DC;" d="M16.067,280.6H178.2c4.713,0,8.533,3.82,8.533,8.533v136.533c0,4.713-3.82,8.533-8.533,8.533
			H16.067c-4.713,0-8.533-3.82-8.533-8.533V289.133C7.533,284.42,11.354,280.6,16.067,280.6z"/>
		<path style="fill:#283593;" d="M178.2,485.4v17.067H41.667V485.4c0.028-9.414,7.652-17.039,17.067-17.067h102.4
			C170.548,468.361,178.173,475.986,178.2,485.4z"/>
		<path style="fill:#3F51B5;" d="M152.6,485.4v17.067H41.667V485.4c0.028-9.414,7.652-17.039,17.067-17.067h76.8
			C144.948,468.361,152.572,475.986,152.6,485.4z"/>
		<circle style="fill:#02A9F4;" cx="391.533" cy="118.467" r="110.933"/>
	</g>
	<g>
		<path d="M80.042,393.212c-3.187-1.242-6.805-0.544-9.3,1.796c-0.773,0.814-1.383,1.769-1.796,2.813
			c-0.436,1.027-0.667,2.13-0.679,3.246c-0.022,2.27,0.87,4.453,2.475,6.058c1.605,1.605,3.788,2.497,6.058,2.475
			c1.115-0.014,2.216-0.246,3.242-0.683c1.054-0.394,2.013-1.004,2.817-1.791c3.3-3.365,3.3-8.752,0-12.117
			C82.056,394.218,81.097,393.606,80.042,393.212z"/>
		<path d="M104.875,395.008c-3.313,3.34-3.298,8.73,0.032,12.052c3.331,3.322,8.721,3.322,12.052,0
			c3.331-3.322,3.345-8.712,0.032-12.052C113.565,391.863,108.301,391.863,104.875,395.008z"/>
		<path d="M141.821,393.212c-1.044,0.413-1.999,1.023-2.813,1.796c-3.3,3.365-3.3,8.752,0,12.117
			c0.815,0.771,1.77,1.379,2.813,1.792c2.067,0.911,4.421,0.911,6.487,0c1.044-0.414,1.999-1.022,2.817-1.792
			c3.3-3.365,3.3-8.752,0-12.117C148.652,392.621,145.004,391.917,141.821,393.212z"/>
		<path d="M505.83,81.826C489.653,32.979,443.989,0,392.533,0s-97.12,32.98-113.297,81.828c-0.078,0.172-0.127,0.348-0.193,0.526
			c-3.014,9.263-4.876,18.861-5.544,28.579H143.855c-4.129-16.101-19.277-26.87-35.84-25.481
			c-16.564,1.389-29.706,14.531-31.095,31.095c-1.389,16.564,9.38,31.711,25.481,35.841v120.678H17.067
			C7.645,273.077,0.011,280.712,0,290.133v136.533c0.011,9.421,7.645,17.056,17.067,17.067H76.8V460.8H59.733
			c-14.132,0.015-25.585,11.468-25.6,25.6v17.067c-0.001,2.263,0.898,4.434,2.499,6.035c1.6,1.6,3.771,2.499,6.035,2.499H179.2
			c2.263,0.001,4.434-0.898,6.035-2.499c1.6-1.6,2.499-3.771,2.499-6.035V486.4c-0.015-14.132-11.468-25.585-25.6-25.6h-17.067
			v-17.067H204.8c9.421-0.011,17.056-7.645,17.067-17.067v-25.6h137.745c4.129,16.101,19.277,26.87,35.841,25.481
			c16.564-1.389,29.706-14.531,31.095-31.095s-9.38-31.711-25.481-35.841V238.501c48.007-3.491,89.241-35.425,104.631-81.032
			c0.051-0.116,0.083-0.234,0.129-0.352c8.163-24.241,8.232-50.476,0.198-74.76C505.958,82.178,505.909,82,505.83,81.826z
			 M438.84,76.8h-37.773V18.674C417.653,24.525,431.763,46.939,438.84,76.8z M384,18.674V76.8h-37.772
			C353.305,46.939,367.414,24.525,384,18.674z M384,93.867v51.625h-40.853c-2.399-17.123-2.418-34.496-0.056-51.625H384z
			 M346.332,162.558H384v57.701C367.493,214.437,353.442,192.206,346.332,162.558z M325.868,145.491h-32.255
			c-4.601-16.896-4.639-34.71-0.109-51.625h32.304C323.733,111.014,323.754,128.349,325.868,145.491z M328.762,162.558
			c3.421,17.609,10.242,34.383,20.082,49.382c-21.599-10.258-38.951-27.719-49.073-49.382H328.762z M401.067,220.259v-57.701h37.669
			C431.626,192.206,417.573,214.437,401.067,220.259z M401.067,145.491V93.867h40.909c2.362,17.129,2.343,34.502-0.056,51.625
			H401.067z M459.26,93.867h32.304c4.53,16.915,4.492,34.729-0.109,51.625h-32.255C461.313,128.349,461.334,111.014,459.26,93.867z
			 M485.501,76.8h-29.109c-3.403-17.761-10.255-34.683-20.169-49.807C457.97,37.318,475.408,54.943,485.501,76.8z M348.844,26.993
			c-9.914,15.124-16.766,32.046-20.169,49.807h-29.109C309.659,54.943,327.096,37.318,348.844,26.993z M93.867,119.467
			c0-9.426,7.641-17.067,17.067-17.067S128,110.041,128,119.467s-7.641,17.067-17.067,17.067
			C101.512,136.522,93.877,128.888,93.867,119.467z M170.667,486.4v8.533H51.2V486.4c0.005-4.711,3.822-8.529,8.533-8.533h102.4
			C166.844,477.871,170.662,481.689,170.667,486.4z M128,460.8H93.867v-17.067H128V460.8z M136.533,426.667H17.067V290.133H204.8
			l0.009,136.533H136.533z M204.8,273.067h-85.333V152.388c11.947-3.112,21.276-12.442,24.388-24.388h129.644
			c0.687,9.909,2.616,19.692,5.742,29.12c0.045,0.117,0.077,0.233,0.128,0.347c15.389,45.607,56.624,77.542,104.631,81.033v121.111
			c-11.947,3.112-21.276,12.442-24.388,24.388H221.867v-93.867C221.856,280.712,214.221,273.077,204.8,273.067z M409.6,392.533
			c0,9.426-7.641,17.067-17.067,17.067s-17.067-7.641-17.067-17.067c0-9.426,7.641-17.067,17.067-17.067
			C401.955,375.477,409.589,383.112,409.6,392.533z M436.223,211.94c9.839-14.999,16.661-31.773,20.082-49.382h28.991
			C475.174,184.221,457.822,201.683,436.223,211.94z"/>
	</g>
</g>
<g>
</g>
<g>
</g>
<g>
</g>
<g>
</g>
<g>
</g>
<g>
</g>
<g>
</g>
<g>
</g>
<g>
</g>
<g>
</g>
<g>
</g>
<g>
</g>
<g>
</g>
<g>
</g>
<g>
</g>
</svg>
