<svg id="4th-grade-curriculum/캡스톤디자인" enable-background="new 0 0 64 64" height="512" viewBox="0 0 64 64" width="512" xmlns="http://www.w3.org/2000/svg"><path d="m56 2c2.21 0 4 1.79 4 4v20c0 .82-.25 1.59-.68 2.22-.71 1.08-1.93 1.78-3.32 1.78h-23.46-11.89c-.81-2.33-3.04-4-5.65-4-.34 0-.67.03-.99.09 0-.03-.01-.06-.01-.09v-20c0-2.21 1.79-4 4-4z" fill="#ffeaa7"/><path d="m32.54 30h23.46c1.39 0 2.61-.7 3.32-1.78 1.56.55 2.68 2.03 2.68 3.78v22c0 2.21-1.79 4-4 4h-22c-2.21 0-4-1.79-4-4v-22c0-.73.2-1.41.54-2z" fill="#ecc19c"/><path d="m56 41v4l-1.48.7c-.08.24-.18.48-.29.71l.55 1.54-2.83 2.83-1.54-.55c-.23.11-.47.21-.71.29l-.7 1.48h-4l-.7-1.48c-.24-.08-.48-.18-.71-.29l-1.54.55-2.83-2.83.55-1.54c-.11-.23-.21-.47-.29-.71l-1.48-.7v-4l1.48-.7c.08-.24.18-.48.29-.71l-.55-1.54 2.83-2.83 1.54.55c.23-.11.47-.21.71-.29l.7-1.48h4l.7 1.48c.24.08.48.18.71.29l1.54-.55 2.83 2.83-.55 1.54c.11.23.21.47.29.71zm-5 2c0-2.21-1.79-4-4-4s-4 1.79-4 4 1.79 4 4 4 4-1.79 4-4z" fill="#fcd770"/><path d="m22 58v4h-14v-4h5.5c.69 0 1.32-.28 1.77-.73s.73-1.08.73-1.77c0-1.38-1.12-2.5-2.5-2.5h-5.5v-4h14z" fill="#e6e9ed"/><path d="m22 49h-14v4h5.5c1.38 0 2.5 1.12 2.5 2.5 0 .69-.28 1.32-.73 1.77s-1.08.73-1.77.73h-5.5-2c-2.21 0-4-1.79-4-4v-3c0-5.2 3.05-9.69 7.46-11.77l.01.02 2.53 6.75 3-3 3 3 2.53-6.75.01-.02c1.36.65 2.6 1.53 3.65 2.58 2.35 2.35 3.81 5.6 3.81 9.19v3c0 2.21-1.79 4-4 4h-2z" fill="#b4dd7f"/><path d="m20.54 39.23-.01.02-2.53 6.75-3-3 4.27-4.27c.43.14.86.31 1.27.5z" fill="#8cc152"/><path d="m15 43-3 3-2.53-6.75-.01-.02c.41-.19.84-.36 1.27-.5z" fill="#8cc152"/><path d="m15 38 4.27.73-4.27 4.27-4.27-4.27c1.34-.48 2.77-.73 4.27-.73z" fill="#f0d0b4"/><path d="m20.65 30c.23.63.35 1.3.35 2 0 3.31-2.69 6-6 6s-6-2.69-6-6c0-2.97 2.17-5.44 5.01-5.91.32-.06.65-.09.99-.09 2.61 0 4.84 1.67 5.65 4z" fill="#f0d0b4"/><path d="m48.75 16.01c.08-.01.17-.01.25-.01 2.76 0 5 2.24 5 5s-2.24 5-5 5h-24c-2.76 0-5-2.24-5-5s2.24-5 5-5h.08c.48-2.84 2.94-5 5.92-5 .85 0 1.67.18 2.4.5 1.05-3.19 4.05-5.5 7.6-5.5 4.42 0 8 3.58 8 8 0 .69-.09 1.37-.25 2.01z" fill="#e6e9ed"/><path d="m55.311 46.435 1.689-.803v-5.264l-1.689-.803c-.001-.004-.003-.008-.005-.012l.626-1.763-3.722-3.722-1.763.626c-.004-.001-.008-.003-.012-.005l-.803-1.689h-5.264l-.803 1.689c-.004.001-.008.003-.012.005l-1.763-.626-3.722 3.722.626 1.763c-.001.004-.003.008-.005.012l-1.689.803v5.264l1.689.803c.001.004.003.008.005.012l-.626 1.763 3.722 3.722 1.763-.626c.004.001.008.003.012.005l.803 1.689h5.264l.803-1.689c.004-.001.008-.003.012-.005l1.763.626 3.722-3.722-.626-1.763c.001-.004.003-.008.005-.012zm-.311-2.067-1.28.609-.14.388c-.076.209-.16.415-.254.615l-.177.374.475 1.336-1.935 1.935-1.336-.475-.374.177c-.2.095-.405.179-.615.254l-.388.14-.608 1.279h-2.736l-.609-1.28-.388-.14c-.209-.076-.415-.16-.615-.254l-.374-.177-1.336.475-1.935-1.935.475-1.336-.177-.374c-.095-.2-.179-.405-.254-.615l-.14-.388-1.279-.608v-2.736l1.28-.609.14-.388c.076-.209.16-.415.254-.615l.177-.374-.475-1.336 1.935-1.935 1.336.475.374-.177c.2-.095.405-.179.615-.254l.388-.14.608-1.279h2.736l.609 1.28.388.14c.209.076.415.16.615.254l.374.177 1.336-.475 1.935 1.935-.475 1.336.177.374c.095.2.179.405.254.615l.14.388 1.279.608z"/><path d="m47 38c-2.757 0-5 2.243-5 5s2.243 5 5 5 5-2.243 5-5-2.243-5-5-5zm0 8c-1.654 0-3-1.346-3-3s1.346-3 3-3 3 1.346 3 3-1.346 3-3 3z"/><path d="m60.657 27.781c.213-.555.343-1.152.343-1.781v-20c0-2.757-2.243-5-5-5h-38c-2.757 0-5 2.243-5 5v19.295c-2.888.863-5 3.54-5 6.705 0 2.307 1.127 4.351 2.854 5.627-5.702 1.772-9.854 7.096-9.854 13.373v3c0 2.757 2.243 5 5 5h1v4h16v-4h1c2.757 0 5-2.243 5-5v-3c0-6.277-4.152-11.601-9.854-13.373 1.727-1.276 2.854-3.32 2.854-5.627 0-.34-.033-.672-.08-1h9.192c-.067.329-.112.662-.112 1v22c0 2.757 2.243 5 5 5h22c2.757 0 5-2.243 5-5v-22c0-1.74-.913-3.317-2.343-4.219zm-39.657 33.219h-12v-2h4.5c1.93 0 3.5-1.57 3.5-3.5s-1.57-3.5-3.5-3.5h-4.5v-2h12zm6-10v3c0 1.654-1.346 3-3 3h-1v-9h-16v6h6.5c.827 0 1.5.673 1.5 1.5s-.673 1.5-1.5 1.5h-7.5c-1.654 0-3-1.346-3-3v-3c0-4.401 2.389-8.246 5.931-10.334l2.678 7.14 3.391-3.392 3.391 3.391 2.678-7.14c3.542 2.089 5.931 5.934 5.931 10.335zm-16.043-10.628 2.629 2.628-1.195 1.195zm5.457 2.628 2.629-2.628-1.434 3.823zm.937-3.766-2.351 2.352-2.351-2.351c.76-.152 1.546-.235 2.351-.235s1.591.083 2.351.234zm-2.351-2.234c-2.757 0-5-2.243-5-5s2.243-5 5-5 5 2.243 5 5-2.243 5-5 5zm.008-12-.008-19c0-1.654 1.346-3 3-3h38c1.654 0 3 1.346 3 3v20c0 1.654-1.346 3-3 3h-34.685c-1.125-2.358-3.525-3.996-6.307-4zm45.992 29c0 1.654-1.346 3-3 3h-22c-1.654 0-3-1.346-3-3v-22c0-.345.08-.678.194-1h22.806c1.41 0 2.68-.592 3.59-1.534.86.54 1.41 1.488 1.41 2.534z"/><path d="m49.932 15.08c.043-.357.068-.718.068-1.08 0-4.962-4.038-9-9-9-3.553 0-6.722 2.069-8.175 5.242-.593-.161-1.204-.242-1.825-.242-3.161 0-5.865 2.08-6.719 5.047-2.97.357-5.281 2.888-5.281 5.953 0 3.309 2.691 6 6 6h24c3.309 0 6-2.691 6-6 0-2.991-2.202-5.47-5.068-5.92zm-.932 9.92h-24c-2.206 0-4-1.794-4-4s1.794-4 4-4 4 1.794 4 4h2c0-2.841-1.986-5.221-4.642-5.839.738-1.877 2.546-3.161 4.642-3.161.691 0 1.365.141 2.002.42l1.008.441.343-1.045c.946-2.88 3.617-4.816 6.647-4.816 3.86 0 7 3.14 7 7 0 .373-.039.741-.097 1.105-2.786.518-4.903 2.962-4.903 5.895h2c0-2.206 1.794-4 4-4s4 1.794 4 4-1.794 4-4 4z"/><path d="m57 53h2v2h-2z"/><path d="m35 53h2v2h-2z"/><path d="m35 33h2v2h-2z"/><path d="m17 5h2v2h-2z"/><path d="m17 9h2v2h-2z"/><path d="m17 13h2v2h-2z"/><path d="m55 13h2v2h-2z"/><path d="m55 9h2v2h-2z"/><path d="m55 5h2v2h-2z"/><path d="m44 14h2c0-2.757-2.243-5-5-5v2c1.654 0 3 1.346 3 3z"/></svg>