<svg height="512" viewBox="0 0 512 512" width="512" xmlns="http://www.w3.org/2000/svg"><g id="filled_outline" data-name="filled outline"><path d="m424 304h-400v-204a36 36 0 0 1 36-36h328a36 36 0 0 1 36 36z" fill="#2ad3b3"/><path d="m24 304h400a0 0 0 0 1 0 0v12a36 36 0 0 1 -36 36h-328a36 36 0 0 1 -36-36v-12a0 0 0 0 1 0 0z" fill="#eaeae8"/><path d="m192 352h64l6.879 20.636a84.064 84.064 0 0 0 33.121 43.364v24h-144v-24a84.064 84.064 0 0 0 33.121-43.364z" fill="#a8a8a8"/><path d="m480 432h-256v-184.235a20 20 0 0 1 20-20h216a20 20 0 0 1 20 20z" fill="#cbcbcb"/><path d="m256 264h192v112h-192z" fill="#0296e5"/><path d="m256 264h184v104h-184z" fill="#0bafea"/><path d="m470 440h-236a18 18 0 0 1 -18-18v-14h104l8 8h40l8-8h112v14a18 18 0 0 1 -18 18z" fill="#eaeae8"/><g fill="#04957c"><path d="m154.463 249.17a8 8 0 0 1 -7.807-6.289 80.01 80.01 0 0 1 95.994-95.065 8 8 0 1 1 -3.566 15.6 64.011 64.011 0 0 0 -76.8 76.043 8.006 8.006 0 0 1 -7.822 9.713z"/><path d="m123.188 256a8 8 0 0 1 -7.807-6.289 112.033 112.033 0 0 1 134.4-133.09 8 8 0 1 1 -3.566 15.6 96.033 96.033 0 0 0 -115.205 114.067 8.007 8.007 0 0 1 -7.822 9.712z"/><path d="m185.729 242.341a8 8 0 0 1 -7.807-6.288 48 48 0 0 1 57.6-57.042 8 8 0 0 1 -3.567 15.6 32.037 32.037 0 0 0 -38.328 24.061 31.714 31.714 0 0 0 -.071 13.957 8.007 8.007 0 0 1 -7.822 9.714z"/></g><path d="m256 384h192a8 8 0 0 0 8-8v-112a8 8 0 0 0 -8-8h-192a8 8 0 0 0 -8 8v112a8 8 0 0 0 8 8zm8-112h176v96h-176z"/><path d="m488 400v-152.235a28.031 28.031 0 0 0 -28-28h-28v-119.765a44.049 44.049 0 0 0 -44-44h-328a44.049 44.049 0 0 0 -44 44v216a44.049 44.049 0 0 0 44 44h120.9l-3.369 10.106a76.432 76.432 0 0 1 -29.969 39.238 8 8 0 0 0 -3.562 6.656v24a8 8 0 0 0 8 8h318a26.029 26.029 0 0 0 26-26v-14a8 8 0 0 0 -8-8zm-28-164.235a12.013 12.013 0 0 1 12 12v152.235h-96a8 8 0 0 0 -5.657 2.343l-5.656 5.657h-33.374l-5.656-5.657a8 8 0 0 0 -5.657-2.343h-88v-152.235a12.013 12.013 0 0 1 12-12zm-244 164.235a8 8 0 0 0 -8 8v14a25.843 25.843 0 0 0 2 10h-50v-11.844a92.565 92.565 0 0 0 32.711-44.99l5.055-15.166h18.234zm0-56h-156a28.032 28.032 0 0 1 -28-28v-4h184zm0-48h-184v-196a28.032 28.032 0 0 1 28-28h328a28.032 28.032 0 0 1 28 28v119.765h-172a28.031 28.031 0 0 0 -28 28zm264 126a10.011 10.011 0 0 1 -10 10h-236a10.011 10.011 0 0 1 -10-10v-6h92.687l5.656 5.657a8 8 0 0 0 5.657 2.343h40a8 8 0 0 0 5.657-2.343l5.656-5.657h100.687z"/><path d="m162.428 211.538a64.071 64.071 0 0 1 76.656-48.124 8 8 0 1 0 3.566-15.6 80.01 80.01 0 0 0 -95.994 95.065 8 8 0 0 0 15.629-3.424 63.435 63.435 0 0 1 .143-27.917z"/><path d="m246.217 132.219a8 8 0 1 0 3.566-15.6 112.033 112.033 0 0 0 -134.4 133.09 8 8 0 0 0 15.629-3.424 96.033 96.033 0 0 1 115.205-114.066z"/><path d="m231.95 194.609a8 8 0 0 0 3.567-15.6 48 48 0 0 0 -57.595 57.042 8 8 0 0 0 15.629-3.426 31.714 31.714 0 0 1 .071-13.957 32.037 32.037 0 0 1 38.328-24.059z"/></g></svg>