<svg id="4th-grade-curriculum/인공지능" enable-background="new 0 0 64 64" height="512" viewBox="0 0 64 64" width="512" xmlns="http://www.w3.org/2000/svg"><path d="m39 29h-32c-2.209 0-4-1.791-4-4v-18c0-2.21 1.791-4 4-4h32c2.209 0 4 1.791 4 4v18c0 2.209-1.791 4-4 4z" fill="#d5dbdb"/><path d="m39 29h-32c-2.209 0-4-1.791-4-4v-2h40v2c0 2.209-1.791 4-4 4z" fill="#4bbee5"/><path d="m56 53c2.761 0 5-2.239 5-5s-2.239-5-5-5c0-2.761-2.239-5-5-5-.369 0-.726.046-1.071.121-.427-2.896-2.915-5.121-5.929-5.121s-5.502 2.225-5.929 5.121c-.345-.075-.702-.121-1.071-.121-2.761 0-5 2.239-5 5-2.761 0-5 2.239-5 5s2.239 5 5 5z" fill="#fda22e"/><path d="m56 61c-3.866 0-7-3.134-7-7v-1h7z" fill="#f82f45"/><path d="m26 29h-6l-2 7h10z" fill="#3c7eb0"/><circle cx="11" cy="17" fill="#f82f45" r="2"/><circle cx="19" cy="10" fill="#f82f45" r="2"/><circle cx="27" cy="16" fill="#f82f45" r="2"/><circle cx="35" cy="9" fill="#f82f45" r="2"/><g fill="#171526"><path d="m7 30h11.674l-1.429 5h-2.245v2h16v-2h-2.246l-1.429-5h11.675c2.757 0 5-2.243 5-5v-18c0-2.757-2.243-5-5-5h-32c-2.757 0-5 2.243-5 5v18c0 2.757 2.243 5 5 5zm19.674 5h-7.349l1.429-5h4.491zm12.326-7h-32c-1.654 0-3-1.346-3-3v-1h38v1c0 1.654-1.346 3-3 3zm-32-24h32c1.654 0 3 1.346 3 3v15h-38v-15c0-1.654 1.346-3 3-3z"/><path d="m56.928 42.071c-.462-2.964-3.124-5.212-6.225-5.063-.869-2.914-3.595-5.008-6.703-5.008s-5.834 2.094-6.704 5.008c-.025-.001-.049.004-.074.003-.074-.003-.147-.011-.222-.011v.021c-2.982.003-5.481 2.182-5.928 5.05-2.869.449-5.072 2.936-5.072 5.929 0 3.309 2.691 6 6 6h16c0 4.411 3.589 8 8 8 .552 0 1-.447 1-1v-7.09c2.833-.478 5-2.942 5-5.91 0-2.993-2.203-5.48-5.072-5.929zm-1.928 17.846c-2.834-.478-5-2.949-5-5.917h5zm1-7.917h-11.858c.447-1.721 2-3 3.858-3v-2c-1.259 0-2.427.391-3.393 1.057-.76-1.795-2.539-3.057-4.607-3.057v2c1.563 0 2.836 1.206 2.973 2.735-.439.674-.744 1.441-.883 2.265h-3.191c-.465-2.279-2.484-4-4.899-4v2c1.302 0 2.402.839 2.816 2h-4.816c-2.206 0-4-1.794-4-4s1.794-4 4-4c.552 0 1-.447 1-1 0-2.206 1.794-4 4-4 .274 0 .555.032.859.099h.002c1.792.395 3.139 1.991 3.139 3.901h2c0-2.509-1.549-4.66-3.74-5.555.663-2.011 2.568-3.445 4.74-3.445 2.458 0 4.581 1.834 4.939 4.267.04.274.192.52.42.677.228.159.51.211.781.155.305-.067.586-.099.86-.099 2.206 0 4 1.794 4 4s-1.794 4-4 4v2c2.929 0 5.371-2.111 5.893-4.891 1.776.408 3.107 1.993 3.107 3.891 0 2.206-1.794 4-4 4z"/><path d="m46 40v2c1.654 0 3 1.346 3 3h2c0-2.757-2.243-5-5-5z"/><path d="m11 20c1.654 0 3-1.346 3-3 0-.391-.08-.762-.217-1.104l3.756-3.291c.435.244.928.395 1.461.395.614 0 1.185-.187 1.661-.505l3.489 2.616c-.089.283-.15.578-.15.889 0 1.654 1.346 3 3 3s3-1.346 3-3c0-.391-.08-.762-.217-1.104l3.756-3.291c.435.244.928.395 1.461.395 1.654 0 3-1.346 3-3s-1.346-3-3-3-3 1.346-3 3c0 .391.08.762.217 1.104l-3.756 3.291c-.435-.244-.928-.395-1.461-.395-.614 0-1.185.187-1.661.505l-3.489-2.616c.089-.283.15-.578.15-.889 0-1.654-1.346-3-3-3s-3 1.346-3 3c0 .391.08.762.217 1.104l-3.756 3.291c-.435-.244-.928-.395-1.461-.395-1.654 0-3 1.346-3 3s1.346 3 3 3zm24-12c.551 0 1 .448 1 1s-.449 1-1 1-1-.448-1-1 .449-1 1-1zm-8 7c.551 0 1 .448 1 1s-.449 1-1 1-1-.448-1-1 .449-1 1-1zm-8-6c.551 0 1 .448 1 1s-.449 1-1 1-1-.448-1-1 .449-1 1-1zm-8 7c.551 0 1 .448 1 1s-.449 1-1 1-1-.448-1-1 .449-1 1-1z"/><path d="m52.707 29.293-1.414 1.414 4 4c.195.195.451.293.707.293s.512-.098.707-.293l4-4-1.414-1.414-2.293 2.293v-13.586c0-2.757-2.243-5-5-5h-6v2h6c1.654 0 3 1.346 3 3v13.586z"/><path d="m9 46v-9.586l2.293 2.293 1.414-1.414-4-4c-.391-.391-1.023-.391-1.414 0l-4 4 1.414 1.414 2.293-2.293v9.586c0 2.757 2.243 5 5 5h12v-2h-12c-1.654 0-3-1.346-3-3z"/><path d="m44 56h2v2h-2z"/><path d="m40 56h2v2h-2z"/><path d="m36 56h2v2h-2z"/></g></svg>