<svg height="512" viewBox="0 0 512 512" width="512" xmlns="http://www.w3.org/2000/svg"><g id="4th-grade-curriculum/정보보호" data-name="Fill out line"><path d="m24 184h272v80h-272z" fill="#cbdbe7"/><path d="m24 296h272v80h-272z" fill="#cbdbe7"/><path d="m24 408h272v80h-272z" fill="#cbdbe7"/><g fill="#394f5a"><path d="m48 376h32v32h-32z"/><path d="m240 376h32v32h-32z"/><path d="m48 264h32v32h-32z"/><path d="m240 264h32v32h-32z"/></g><path d="m488 320h-216l-32 32v-32h-24v-296h272z" fill="#f3f0c7"/><path d="m376 248h-128v-192h80l48 48z" fill="#91d3ee"/><path d="m328 56v48h48z" fill="#37a5ca"/><path d="m360 224h96v64h-96z" fill="#a9ca2a"/><path d="m456 224v64h-96v-16h16a64.03536 64.03536 0 0 0 61.99-48z" fill="#68bf40"/><path d="m288 368h-256v-64h160v-16h-104v-16h104v-16h-160v-64h160v-16h-168a8.00039 8.00039 0 0 0 -8 8v80a8.00039 8.00039 0 0 0 8 8h16v16h-16a8.00039 8.00039 0 0 0 -8 8v80a8.00039 8.00039 0 0 0 8 8h16v16h-16a8.00039 8.00039 0 0 0 -8 8v80a8.00039 8.00039 0 0 0 8 8h272a8.00039 8.00039 0 0 0 8-8v-80a8.00039 8.00039 0 0 0 -8-8h-16v-16h16a8.00039 8.00039 0 0 0 8-8v-32h-16zm-232-96h16v16h-16zm192 112h16v16h-16zm-160 0h144v16h-144zm-32 0h16v16h-16zm232 32v64h-256v-64z"/><path d="m48 216h64v16h-64z"/><circle cx="136" cy="224" r="8"/><circle cx="168" cy="224" r="8"/><path d="m48 328h64v16h-64z"/><circle cx="136" cy="336" r="8"/><circle cx="168" cy="336" r="8"/><path d="m48 440h64v16h-64z"/><circle cx="136" cy="448" r="8"/><circle cx="168" cy="448" r="8"/><path d="m248 256h88v-16h-80v-176h64v40a8.00039 8.00039 0 0 0 8 8h40v48h16v-56a8.00235 8.00235 0 0 0 -2.34277-5.65723l-48-48a8.00235 8.00235 0 0 0 -5.65723-2.34277h-80a8.00039 8.00039 0 0 0 -8 8v192a8.00039 8.00039 0 0 0 8 8zm88-180.68652 20.68652 20.68652h-20.68652z"/><path d="m272 96h32v16h-32z"/><path d="m272 128h32v16h-32z"/><path d="m320 128h32v16h-32z"/><path d="m272 160h48v16h-48z"/><path d="m336 160h16v16h-16z"/><path d="m272 192h16v16h-16z"/><path d="m304 192h48v16h-48z"/><path d="m488 16h-272a8.00039 8.00039 0 0 0 -8 8v296a8.00039 8.00039 0 0 0 8 8h16v24a8.00053 8.00053 0 0 0 13.65723 5.65723l29.65625-29.65723h212.68652a8.00039 8.00039 0 0 0 8-8v-296a8.00039 8.00039 0 0 0 -8-8zm-8 296h-208a8.00235 8.00235 0 0 0 -5.65723 2.34277l-18.34277 18.34375v-12.68652a8.00039 8.00039 0 0 0 -8-8h-16v-280h256z"/><path d="m368 208v8h-8a8.00039 8.00039 0 0 0 -8 8v64a8.00039 8.00039 0 0 0 8 8h96a8.00039 8.00039 0 0 0 8-8v-64a8.00039 8.00039 0 0 0 -8-8h-8v-8a40 40 0 0 0 -80 0zm80 24v48h-80v-48zm-64-24a24 24 0 0 1 48 0v8h-48z"/></g></svg>