<svg id="4th-grade-curriculum/영상처리" enable-background="new 0 0 64 64" height="512" viewBox="0 0 64 64" width="512" xmlns="http://www.w3.org/2000/svg"><g><g><g><path d="m54 32c-.71 0-1.39.1-2.04.27-.17-3.64-1.64-6.95-3.96-9.45-1.14-1.24-2.49-2.29-4-3.09-2.09-1.1-4.47-1.73-7-1.73-6.14 0-11.42 3.7-13.74 8.99-.92-.81-2.03-1.42-3.26-1.73-.64-.17-1.31-.26-2-.26s-1.36.09-2 .26c-3.14.8-5.52 3.47-5.93 6.74-.02 0-.05 0-.07 0-4.42 0-8 3.58-8 8s3.58 8 8 8h44c4.42 0 8-3.58 8-8s-3.58-8-8-8z" fill="#e6e9ed"/></g><g><path d="m48 2v20.82c-1.14-1.24-2.49-2.29-4-3.09v-5.73h-24v11.26c-.64-.17-1.31-.26-2-.26s-1.36.09-2 .26v-23.26z" fill="#f0d0b4"/></g><g><path d="m44 14v5.73c-2.09-1.1-4.47-1.73-7-1.73-6.14 0-11.42 3.7-13.74 8.99-.92-.81-2.03-1.42-3.26-1.73v-11.26z" fill="#ff826e"/></g><g><path d="m48 48v14h-32v-14-16h32z" fill="#f0d0b4"/></g><g><path d="m20 36h24v18h-24z" fill="#ffeaa7"/></g><g><path d="m36 40c2.21 0 4 2.79 4 5s-1.79 4-4 4c-2.07 0-3.77-1.57-3.98-3.59-.01-.14-.02-.27-.02-.41 0-2.21 1.79-5 4-5z" fill="#a0d468"/></g><g><path d="m31.96 45.42c.03.2.04.39.04.58 0 2.21-1.79 4-4 4s-4-1.79-4-4 1.79-5 4-5c2.02 0 3.69 2.33 3.96 4.42z" fill="#b4dd7f"/></g></g><g><path d="m52.866 31.076c-.395-3.303-1.795-6.274-3.866-8.632v-21.444h-34v23.517c-2.868 1.019-5.096 3.456-5.777 6.516-4.6.395-8.223 4.266-8.223 8.967 0 4.962 4.038 9 9 9h5v14h34v-14h5c4.962 0 9-4.038 9-9 0-5.336-4.692-9.642-10.134-8.924zm-35.866-28.076h30v17.529c-.63-.507-1.297-.967-2-1.375v-6.154h-26v11.073c-.332-.038-.664-.073-1-.073-.338 0-.671.025-1 .062zm26 15.172c-1.855-.751-3.878-1.172-6-1.172-5.928 0-11.335 3.281-14.104 8.456-.593-.386-1.235-.679-1.896-.915v-9.541h22zm4 42.828h-30v-28h30zm7-14h-5v-16h-34v16h-5c-3.86 0-7-3.14-7-7s3.14-7 6.959-7.001l.993.004.109-.876c.435-3.493 3.418-6.127 6.939-6.127 1.689 0 3.325.617 4.605 1.738l1.026.898.548-1.249c2.235-5.095 7.267-8.387 12.821-8.387 7.471 0 13.605 5.851 13.964 13.319l.06 1.232 1.193-.313c4.628-1.209 8.783 2.323 8.783 6.762 0 3.86-3.14 7-7 7z"/><path d="m45 35h-26v20h26zm-17 14c-1.654 0-3-1.346-3-3 0-1.747 1.455-4 3-4s3 2.253 3 4c0 1.654-1.346 3-3 3zm1 1.899c1.453-.296 2.66-1.237 3.358-2.497.696.745 1.607 1.286 2.642 1.497v3.101h-6zm7-2.899c-1.654 0-3-1.346-3-3 0-1.747 1.455-4 3-4s3 2.253 3 4c0 1.654-1.346 3-3 3zm7 5h-6v-3.101c2.279-.465 4-2.484 4-4.899 0-2.774-2.184-6-5-6-1.859 0-3.438 1.408-4.299 3.162-.907-1.258-2.214-2.162-3.701-2.162-2.816 0-5 3.226-5 6 0 2.414 1.721 4.434 4 4.899v2.101h-6v-16h22z"/><path d="m19 57h2v2h-2z"/><path d="m23 57h18v2h-18z"/><path d="m43 57h2v2h-2z"/><path d="m19 5h2v2h-2z"/><path d="m23 5h22v2h-22z"/><path d="m19 9h26v2h-26z"/><path d="m37 21v2c4.151 0 7.809 2.498 9.318 6.364l1.863-.728c-1.811-4.638-6.2-7.636-11.181-7.636z"/></g></g></svg>