<svg id="4th-grade-curriculum/창업산학초청세미나 2" enable-background="new 0 0 256 256" height="512" viewBox="0 0 256 256" width="512" xmlns="http://www.w3.org/2000/svg"><path d="m223.584 18.798h-151.168v100.337c0 4.418 3.582 8 8 8h135.167c4.418 0 8-3.582 8-8v-100.337z" fill="#6bdddd"/><path d="m81.054 114.496v-95.698h133.891v95.699c0 2.209-1.791 4-4 4h-125.891c-2.209-.001-4-1.792-4-4.001z" fill="#e0ebfc"/><path d="m134.789 95.844h-41.789c-1.381 0-2.5-1.119-2.5-2.5s1.119-2.5 2.5-2.5h41.789c1.381 0 2.5 1.119 2.5 2.5s-1.119 2.5-2.5 2.5z" fill="#b9befc"/><path d="m134.789 105.844h-41.789c-1.381 0-2.5-1.119-2.5-2.5s1.119-2.5 2.5-2.5h41.789c1.381 0 2.5 1.119 2.5 2.5s-1.119 2.5-2.5 2.5z" fill="#b9befc"/><path d="m117.973 31.157c-12.383 0-22.421 10.038-22.421 22.421s10.038 22.422 22.421 22.422 22.421-10.038 22.421-22.421h-22.421z" fill="#f9a7a7"/><path d="m123.579 25.552v22.421h22.421c0-12.383-10.038-22.421-22.421-22.421z" fill="#a4c9ff"/><path d="m231.021 18.798h-166.042c-1.657 0-3-1.343-3-3v-4.798c0-1.657 1.343-3 3-3h166.043c1.657 0 3 1.343 3 3v4.798c-.001 1.657-1.344 3-3.001 3z" fill="#4671c6"/><path d="m148 143.134c-3.314 0-6-2.686-6-6v-10h12v10c0 3.314-2.686 6-6 6z" fill="#f9a7a7"/><path d="m159.151 109.167h-11.151c-1.105 0-2-.895-2-2v-17.646c0-1.105.895-2 2-2h11.151c1.105 0 2 .895 2 2v17.645c0 1.105-.896 2.001-2 2.001z" fill="#f9a7a7"/><path d="m181.575 109.167h-11.151c-1.105 0-2-.895-2-2v-29.076c0-1.105.895-2 2-2h11.151c1.105 0 2 .895 2 2v29.076c0 1.104-.895 2-2 2z" fill="#ffea92"/><path d="m204 109.167h-11.151c-1.105 0-2-.895-2-2v-43.167c0-1.105.895-2 2-2h11.151c1.105 0 2 .895 2 2v43.167c0 1.104-.895 2-2 2z" fill="#a4c9ff"/><path d="m132.667 41.667c-.769 0-1.502-.446-1.832-1.195-.445-1.011.014-2.191 1.025-2.636l19.333-8.509c.254-.112.528-.169.806-.169h14c1.104 0 2 .896 2 2s-.896 2-2 2h-13.579l-18.949 8.34c-.261.114-.534.169-.804.169z" fill="#3762cc"/><g fill="#b9befc"><path d="m206 33.657h-30c-1.381 0-2.5-1.119-2.5-2.5s1.119-2.5 2.5-2.5h30c1.381 0 2.5 1.119 2.5 2.5s-1.119 2.5-2.5 2.5z"/><path d="m206 43.657h-30c-1.381 0-2.5-1.119-2.5-2.5s1.119-2.5 2.5-2.5h30c1.381 0 2.5 1.119 2.5 2.5s-1.119 2.5-2.5 2.5z"/><path d="m206 53.657h-30c-1.381 0-2.5-1.119-2.5-2.5s1.119-2.5 2.5-2.5h30c1.381 0 2.5 1.119 2.5 2.5s-1.119 2.5-2.5 2.5z"/></g><path d="m215.583 129.134h-135.166c-5.514 0-10-4.486-10-10v-100.336c0-1.104.896-2 2-2h151.167c1.104 0 2 .896 2 2v100.336c-.001 5.514-4.486 10-10.001 10zm-141.166-108.336v98.336c0 3.309 2.691 6 6 6h135.167c3.309 0 6-2.691 6-6v-98.336z" fill="#3762cc"/><path d="m231.021 20.798h-166.042c-2.757 0-5-2.243-5-5v-4.798c0-2.757 2.243-5 5-5h166.043c2.757 0 5 2.243 5 5v4.798c-.001 2.757-2.244 5-5.001 5zm-166.042-10.798c-.551 0-1 .449-1 1v4.798c0 .551.449 1 1 1h166.043c.551 0 1-.449 1-1v-4.798c0-.551-.449-1-1-1z" fill="#3762cc"/><path d="m148 145.134c-4.411 0-8-3.589-8-8v-10c0-1.104.896-2 2-2h12c1.104 0 2 .896 2 2v10c0 4.411-3.589 8-8 8zm-4-16v8c0 2.206 1.794 4 4 4s4-1.794 4-4v-8z" fill="#3762cc"/><path d="m66.963 118.2h-3.418c-.008 0-.015-.001-.022-.001l-.001.001h-22.485c-5.94 0-10.755 4.815-10.755 10.755v5.395 1.532 2.837 10.193h.502 5.82 41.115v-10.193-2.837-1.532-5.395c-.001-5.939-4.816-10.755-10.756-10.755z" fill="#e0ebfc"/><path d="m75.223 87.573c-.045 0-.089.006-.133.007v-1.975c0-11.542-9.442-20.899-21.089-20.899-11.647 0-21.089 9.357-21.089 20.899v1.975c-.045-.001-.088-.007-.133-.007-3.553 0-6.434 2.855-6.434 6.376s2.881 6.376 6.434 6.376c.233 0 .463-.014.69-.038 2.176 9.246 10.54 16.135 20.532 16.135 9.993 0 18.356-6.89 20.532-16.135.227.024.457.038.69.038 3.553 0 6.434-2.855 6.434-6.376 0-3.522-2.881-6.376-6.434-6.376z" fill="#f9cfcf"/><path d="m43.52 97.875c-1.404 0-2.546-1.142-2.546-2.546v-4.243c0-1.404 1.142-2.546 2.546-2.546s2.546 1.142 2.546 2.546v4.243c0 1.404-1.142 2.546-2.546 2.546z" fill="#3762cc"/><path d="m64.38 97.875c-1.404 0-2.546-1.142-2.546-2.546v-4.243c0-1.404 1.142-2.546 2.546-2.546s2.546 1.142 2.546 2.546v4.243c0 1.404-1.142 2.546-2.546 2.546z" fill="#3762cc"/><path d="m54 118.422c-10.246 0-19.1-6.56-22.061-16.139-4.259-.419-7.596-3.997-7.596-8.335 0-3.982 2.812-7.323 6.567-8.169v-.174c0-12.627 10.358-22.899 23.089-22.899s23.089 10.272 23.089 22.899v.174c3.755.846 6.567 4.188 6.567 8.169 0 4.338-3.337 7.916-7.596 8.335-2.959 9.579-11.813 16.139-22.059 16.139zm-20.531-20.135c.918 0 1.731.631 1.945 1.542 2.022 8.592 9.665 14.593 18.585 14.593s16.563-6.001 18.585-14.593c.231-.98 1.155-1.636 2.156-1.531.158.017.318.026.481.026 2.445 0 4.434-1.963 4.434-4.376 0-2.4-1.968-4.355-4.396-4.376-.075.005-.136.007-.172.007-.522 0-1.024-.205-1.399-.57-.384-.376-.601-.892-.601-1.43v-1.975c0-10.421-8.563-18.899-19.089-18.899s-19.089 8.478-19.089 18.899v1.975c0 .538-.217 1.053-.601 1.43-.385.376-.921.589-1.442.57-.034 0-.128-.006-.162-.008-2.373.002-4.362 1.965-4.362 4.378s1.989 4.376 4.434 4.376c.163 0 .323-.01.481-.026.072-.008.142-.012.212-.012z" fill="#3762cc"/><path d="m54 116.422c-3.446 0-6.698-.82-9.57-2.273v3.652c0 5.284 4.283 9.567 9.567 9.567s9.567-4.283 9.567-9.567v-3.65c-2.87 1.453-6.12 2.271-9.564 2.271z" fill="#f9cfcf"/><path d="m53.959 122.556-4.308 4.333 1.471 4.823h2.837.045 2.837l1.471-4.823-4.308-4.333z" fill="#f9a7a7"/><path d="m56.841 133.712h-5.719c-.88 0-1.656-.575-1.913-1.417l-1.472-4.823c-.215-.705-.025-1.471.495-1.994l4.309-4.333c.375-.377.886-.59 1.418-.59h.044c.532 0 1.043.212 1.418.59l4.309 4.333c.52.522.71 1.289.495 1.994l-1.472 4.823c-.256.843-1.032 1.417-1.912 1.417zm-4.238-4h2.757l.69-2.262-2.069-2.081-2.069 2.081z" fill="#3762cc"/><path d="m59.01 148.914-2.184-17.202h-5.688l-2.185 17.202z" fill="#f9a7a7"/><path d="m77.718 150.914h-47.436c-1.104 0-2-.896-2-2v-19.958c0-7.033 5.722-12.755 12.755-12.755h1.393v-2.051c0-.695.361-1.34.953-1.704.592-.365 1.33-.396 1.95-.081 2.698 1.365 5.614 2.057 8.667 2.057 3.051 0 5.965-.691 8.662-2.055.621-.314 1.358-.283 1.95.082.592.364.952 1.009.952 1.704v2.048h1.399c7.033 0 12.755 5.722 12.755 12.755v19.958c0 1.105-.895 2-2 2zm-45.436-4h43.437v-17.958c0-4.828-3.928-8.755-8.755-8.755h-3.418c-.543 0-1.063-.221-1.44-.612s-.579-.918-.559-1.461l.018-.96c-4.835 1.668-10.3 1.668-15.134-.002l.019.948c.024.545-.176 1.077-.553 1.471s-.899.617-1.445.617h-3.414c-4.828 0-8.755 3.928-8.755 8.755v17.957z" fill="#3762cc"/><path d="m54 122.556-2.96 5.576c-.27.508-.965.585-1.34.149l-8.271-9.624c-.233-.272-.263-.663-.072-.966l.91-1.448c.285-.453.782-.727 1.316-.727h.846z" fill="#e0ebfc"/><path d="m50.318 130.566c-.815 0-1.596-.354-2.134-.98l-8.271-9.625c-.81-.942-.91-2.283-.248-3.335l.91-1.447c.655-1.042 1.78-1.663 3.01-1.663h.846c.426 0 .842.136 1.185.389l9.57 7.041c.799.588 1.046 1.672.582 2.548l-2.959 5.576c-.437.823-1.25 1.375-2.175 1.479-.107.012-.212.017-.316.017zm-6.802-12.55 6.571 7.647 1.337-2.519-7.612-5.6z" fill="#3762cc"/><path d="m53.963 122.556 2.96 5.576c.27.508.965.585 1.34.149l8.271-9.624c.233-.272.263-.663.072-.966l-.91-1.448c-.285-.453-.782-.727-1.316-.727h-.846z" fill="#e0ebfc"/><path d="m57.645 130.566c-.104 0-.208-.005-.313-.017-.926-.103-1.739-.656-2.176-1.479l-2.959-5.576c-.465-.876-.218-1.96.582-2.548l9.57-7.041c.343-.253.759-.389 1.185-.389h.846c1.23 0 2.355.622 3.009 1.662l.911 1.449c.662 1.051.562 2.392-.249 3.334l-8.271 9.625c-.539.626-1.32.98-2.135.98zm-1.106-7.422 1.337 2.519 6.572-7.647-.297-.472z" fill="#3762cc"/><path d="m59.01 150.914h-10.057c-.574 0-1.121-.247-1.5-.678-.38-.431-.556-1.004-.483-1.574l2.185-17.202c.126-.999.977-1.748 1.984-1.748h5.688c1.007 0 1.857.749 1.984 1.748l2.184 17.202c.073.57-.104 1.143-.483 1.574-.381.431-.928.678-1.502.678zm-7.787-4h5.517l-1.676-13.202h-2.164z" fill="#3762cc"/><path d="m54 118.422c-10.246 0-19.1-6.56-22.061-16.139-4.259-.419-7.596-3.997-7.596-8.335 0-3.982 2.812-7.323 6.567-8.169v-.174c0-12.627 10.358-22.899 23.089-22.899s23.089 10.272 23.089 22.899v.174c3.755.846 6.567 4.188 6.567 8.169 0 4.338-3.337 7.916-7.596 8.335-2.959 9.579-11.813 16.139-22.059 16.139zm-20.531-20.135c.918 0 1.731.631 1.945 1.542 2.022 8.592 9.665 14.593 18.585 14.593s16.563-6.001 18.585-14.593c.231-.98 1.155-1.636 2.156-1.531.158.017.318.026.481.026 2.445 0 4.434-1.963 4.434-4.376 0-2.4-1.968-4.355-4.396-4.376-.075.005-.136.007-.172.007-.522 0-1.024-.205-1.399-.57-.384-.376-.601-.892-.601-1.43v-1.975c0-10.421-8.563-18.899-19.089-18.899s-19.089 8.478-19.089 18.899v1.975c0 .538-.217 1.053-.601 1.43-.385.376-.921.589-1.442.57-.034 0-.128-.006-.162-.008-2.373.002-4.362 1.965-4.362 4.378s1.989 4.376 4.434 4.376c.163 0 .323-.01.481-.026.072-.008.142-.012.212-.012z" fill="#3762cc"/><path d="m13.724 153.504h80.477v94.496h-80.477z" fill="#a4c9ff"/><path d="m98.161 153.504h-88.322c-1.016 0-1.839-.823-1.839-1.839v-12.51c0-1.016.823-1.839 1.839-1.839h88.322c1.016 0 1.839.823 1.839 1.839v12.51c0 1.016-.823 1.839-1.839 1.839z" fill="#a4c9ff"/><path d="m186.233 248h-54.233v-10.698c0-11.661 9.453-21.114 21.114-21.114h12.006c11.661 0 21.114 9.453 21.114 21.114v10.698z" fill="#6bdddd"/><path d="m159.117 216.189c-11.781 0-21.332-9.55-21.332-21.331v-6.32c0-11.781 9.55-21.331 21.331-21.331 11.781 0 21.331 9.55 21.331 21.331v6.32c.001 11.781-9.549 21.331-21.33 21.331z" fill="#4671c6"/><path d="m159.117 218.189c-12.865 0-23.332-10.466-23.332-23.332v-6.32c0-12.865 10.466-23.332 23.332-23.332s23.332 10.466 23.332 23.332v6.32c-.001 12.866-10.467 23.332-23.332 23.332zm0-48.983c-10.66 0-19.332 8.672-19.332 19.332v6.32c0 10.66 8.672 19.332 19.332 19.332s19.332-8.672 19.332-19.332v-6.32c-.001-10.661-8.673-19.332-19.332-19.332z" fill="#3762cc"/><path d="m186.233 250h-54.233c-1.104 0-2-.896-2-2v-10.698c0-12.745 10.369-23.113 23.114-23.113h12.006c12.745 0 23.114 10.369 23.114 23.113v10.698c-.001 1.104-.896 2-2.001 2zm-52.233-4h50.233v-8.698c0-10.539-8.574-19.113-19.114-19.113h-12.006c-10.54 0-19.114 8.574-19.114 19.113v8.698z" fill="#3762cc"/><path d="m248.252 248h-54.233v-10.698c0-11.661 9.453-21.114 21.114-21.114h12.006c11.661 0 21.114 9.453 21.114 21.114v10.698z" fill="#f9a7a7"/><path d="m221.135 216.189c-11.781 0-21.332-9.55-21.332-21.331v-6.32c0-11.781 9.55-21.331 21.331-21.331 11.781 0 21.331 9.55 21.331 21.331v6.32c.002 11.781-9.549 21.331-21.33 21.331z" fill="#4671c6"/><path d="m221.135 218.189c-12.865 0-23.332-10.466-23.332-23.332v-6.32c0-12.865 10.466-23.332 23.332-23.332 12.865 0 23.331 10.466 23.331 23.332v6.32c0 12.866-10.466 23.332-23.331 23.332zm0-48.983c-10.66 0-19.332 8.672-19.332 19.332v6.32c0 10.66 8.672 19.332 19.332 19.332 10.659 0 19.331-8.672 19.331-19.332v-6.32c0-10.661-8.672-19.332-19.331-19.332z" fill="#3762cc"/><path d="m248.251 250h-54.233c-1.104 0-2-.896-2-2v-10.698c0-12.745 10.369-23.113 23.113-23.113h12.006c12.745 0 23.113 10.369 23.113 23.113v10.698c.001 1.104-.894 2-1.999 2zm-52.232-4h50.233v-8.698c0-10.539-8.574-19.113-19.113-19.113h-12.006c-10.539 0-19.113 8.574-19.113 19.113v8.698z" fill="#3762cc"/><path d="m54.492 106.833c.752 0 1.51-.137 2.177-.484.582-.303 1.1-.728 1.51-1.257.332-.428.582-.907.742-1.413.211-.667-.264-1.351-.963-1.351h-7.294c-1.325 0-1.799.684-1.589 1.351.16.507.41.986.742 1.413.41.529.928.954 1.51 1.257.667.347 1.425.484 2.177.484z" fill="#f9a7a7"/><path d="m54.492 107.833h-.987c-.989 0-1.877-.201-2.639-.597-.725-.378-1.343-.893-1.838-1.531-.405-.521-.709-1.102-.906-1.726-.188-.594-.091-1.214.265-1.701.26-.355.901-.95 2.277-.95h7.294c.647 0 1.237.299 1.619.819.384.523.495 1.208.298 1.833s-.502 1.205-.906 1.726c-.496.639-1.114 1.154-1.838 1.531-.762.395-1.65.596-2.639.596zm-4.444-4.401c.127.381.315.731.561 1.047.317.409.715.74 1.182.983.474.246 1.051.371 1.715.371h.987c.665 0 1.242-.125 1.716-.372.466-.243.864-.573 1.181-.982.259-.333.454-.704.579-1.102l-7.304-.05c-.335.001-.529.061-.617.105z" fill="#3762cc"/><path d="m94.202 250h-80.477c-1.104 0-2-.896-2-2v-94.496c0-1.104.896-2 2-2h80.477c1.104 0 2 .896 2 2v94.496c0 1.104-.896 2-2 2zm-78.477-4h76.477v-90.496h-76.477z" fill="#3762cc"/><path d="m98.161 155.504h-88.322c-2.117 0-3.839-1.722-3.839-3.839v-12.51c0-2.117 1.722-3.839 3.839-3.839h88.322c2.117 0 3.839 1.722 3.839 3.839v12.51c0 2.117-1.722 3.839-3.839 3.839zm-88.161-4h88v-12.188h-88z" fill="#3762cc"/><path d="m62.233 248h-54.233v-10.698c0-11.661 9.453-21.114 21.114-21.114h12.006c11.661 0 21.114 9.453 21.114 21.114v10.698z" fill="#6bdddd"/><path d="m35.117 216.189c-11.781 0-21.332-9.55-21.332-21.331v-6.32c0-11.781 9.55-21.331 21.331-21.331 11.781 0 21.331 9.55 21.331 21.331v6.32c.001 11.781-9.549 21.331-21.33 21.331z" fill="#4671c6"/><path d="m35.117 218.189c-12.865 0-23.332-10.466-23.332-23.332v-6.32c0-12.865 10.466-23.332 23.332-23.332s23.332 10.466 23.332 23.332v6.32c-.001 12.866-10.467 23.332-23.332 23.332zm0-48.983c-10.66 0-19.332 8.672-19.332 19.332v6.32c0 10.66 8.672 19.332 19.332 19.332s19.332-8.672 19.332-19.332v-6.32c-.001-10.661-8.673-19.332-19.332-19.332z" fill="#3762cc"/><path d="m62.233 250h-54.233c-1.104 0-2-.896-2-2v-10.698c0-12.745 10.369-23.113 23.114-23.113h12.006c12.745 0 23.114 10.369 23.114 23.113v10.698c-.001 1.104-.896 2-2.001 2zm-52.233-4h50.233v-8.698c0-10.539-8.574-19.113-19.114-19.113h-12.005c-10.54 0-19.114 8.574-19.114 19.113z" fill="#3762cc"/><path d="m124 248h-54.233v-10.698c0-11.661 9.453-21.114 21.114-21.114h12.006c11.661 0 21.114 9.453 21.114 21.114v10.698z" fill="#fff"/><path d="m96.883 216.189c-11.781 0-21.332-9.55-21.332-21.331v-6.32c0-11.781 9.55-21.331 21.331-21.331 11.781 0 21.331 9.55 21.331 21.331v6.32c.002 11.781-9.549 21.331-21.33 21.331z" fill="#4671c6"/><path d="m96.883 218.189c-12.865 0-23.332-10.466-23.332-23.332v-6.32c0-12.865 10.466-23.332 23.332-23.332s23.332 10.466 23.332 23.332v6.32c0 12.866-10.466 23.332-23.332 23.332zm0-48.983c-10.66 0-19.332 8.672-19.332 19.332v6.32c0 10.66 8.672 19.332 19.332 19.332s19.332-8.672 19.332-19.332v-6.32c0-10.661-8.672-19.332-19.332-19.332z" fill="#3762cc"/><path d="m124 248h-54.233v-10.698c0-11.661 9.453-21.114 21.114-21.114h12.006c11.661 0 21.114 9.453 21.114 21.114v10.698z" fill="#f9a7a7"/><path d="m124 250h-54.233c-1.104 0-2-.896-2-2v-10.698c0-12.745 10.369-23.113 23.114-23.113h12.006c12.745 0 23.114 10.369 23.114 23.113v10.698c-.001 1.104-.897 2-2.001 2zm-52.233-4h50.233v-8.698c0-10.539-8.574-19.113-19.114-19.113h-12.006c-10.54 0-19.114 8.574-19.114 19.113v8.698z" fill="#3762cc"/><path d="m22.011 120.447c-2.907-1.678-3.903-5.395-2.224-8.301l2.613-4.525c1.678-2.907 5.395-3.902 8.301-2.224 2.907 1.678 3.902 5.395 2.224 8.301l-2.613 4.525c-1.678 2.906-5.394 3.902-8.301 2.224z" fill="#4671c6"/><path d="m16.6 125.953 3.497-7.255c.491.693 1.13 1.297 1.914 1.749.855.493 1.78.75 2.702.8l-3.109 6.45v9.619h-5.265v-10.22c0-.396.09-.786.261-1.143z" fill="#e0ebfc"/><path d="m25.037 123.265c-1.399 0-2.781-.367-4.025-1.086-1.869-1.079-3.205-2.82-3.764-4.904-.558-2.084-.272-4.261.807-6.129l2.613-4.525c2.226-3.856 7.175-5.184 11.033-2.956 3.856 2.227 5.183 7.176 2.957 11.033l-2.613 4.525c-1.079 1.869-2.82 3.205-4.904 3.764-.697.185-1.403.278-2.104.278zm2.631-16.685c-.354 0-.71.046-1.062.141-1.052.282-1.931.956-2.476 1.899l-2.613 4.525c-.544.943-.689 2.042-.407 3.093.282 1.052.957 1.931 1.9 2.476.943.544 2.042.69 3.094.407 1.052-.282 1.931-.957 2.476-1.9l2.613-4.525c1.124-1.947.454-4.445-1.493-5.569-.628-.362-1.325-.547-2.032-.547z" fill="#3762cc"/><path d="m21.604 139.316h-5.265c-1.104 0-2-.896-2-2v-10.22c0-.69.158-1.385.458-2.009 0-.001 0-.002.001-.002l3.497-7.255c.308-.638.929-1.065 1.634-1.125.707-.053 1.39.259 1.799.836.345.486.777.881 1.283 1.174.553.319 1.162.5 1.811.535.667.037 1.272.405 1.612.98s.37 1.283.08 1.885l-2.911 6.039v9.162c.001 1.104-.895 2-1.999 2zm-3.265-4h1.265v-7.619c0-.301.068-.598.198-.868l2.04-4.232c-.283-.123-.56-.262-.831-.418-.097-.056-.193-.114-.287-.174l-2.321 4.815c-.042.088-.063.181-.063.277v8.219z" fill="#3762cc"/><path d="m49.591 83.995h-21.854c-.769 0-1.393-.624-1.393-1.393v-5.576c-.001-10.508 8.517-19.026 19.025-19.026h10.143c2.885 0 5.225 2.339 5.225 5.225v9.624c-.001 6.156-4.991 11.146-11.146 11.146z" fill="#4671c6"/><path d="m80.263 83.995h-8.381c-6.156 0-11.146-4.99-11.146-11.146v-9.624c0-2.885 2.339-5.225 5.225-5.225 8.668 0 15.696 7.027 15.696 15.696v8.906c0 .769-.624 1.393-1.394 1.393z" fill="#4671c6"/><path d="m49.59 85.995h-21.853c-1.871 0-3.394-1.522-3.394-3.393v-5.577c0-11.593 9.432-21.025 21.026-21.025h10.143c3.984 0 7.225 3.241 7.225 7.225v9.624c-.001 7.248-5.898 13.146-13.147 13.146zm-21.247-4h21.247c5.043 0 9.146-4.103 9.146-9.146v-9.624c0-1.778-1.447-3.225-3.225-3.225h-10.142c-9.388 0-17.025 7.637-17.025 17.025v4.97z" fill="#3762cc"/><path d="m80.263 85.995h-8.381c-7.249 0-13.146-5.897-13.146-13.146v-9.624c0-3.984 3.241-7.225 7.225-7.225 9.757 0 17.696 7.938 17.696 17.696v8.906c0 1.871-1.523 3.393-3.394 3.393zm-14.302-25.995c-1.778 0-3.225 1.447-3.225 3.225v9.624c0 5.043 4.103 9.146 9.146 9.146h7.774v-8.299c.001-7.552-6.143-13.696-13.695-13.696z" fill="#3762cc"/></svg>