<svg height="512pt" viewBox="0 -22 512.00087 512" width="512pt" xmlns="http://www.w3.org/2000/svg"><path d="m467.582031 460.132812-423 .316407c-5.523437.003906-10.003906-4.46875-10.007812-9.992188l-.160157-218.851562c-.003906-5.523438 4.46875-10.003907 9.992188-10.007813l423-.3125c5.523438-.003906 10.003906 4.46875 10.007812 9.992188l.160157 218.851562c.003906 5.519532-4.46875 10-9.992188 10.003906zm0 0" fill="#76ffd9"/><path d="m467.582031 460.132812-211.503906.160157-.175781-238.851563 211.503906-.15625c5.519531-.003906 10 4.46875 10.003906 9.992188l.164063 218.851562c.003906 5.519532-4.46875 10-9.992188 10.003906zm0 0" fill="#76ffd9"/><path d="m256 279.347656c-66.699219-49.257812-146.492188-51.421875-189-48.15625v170.316406c0 5.699219 4.746094 10.25 10.433594 9.992188 44.253906-2.019531 116.992187 3.320312 178.566406 48.792969 61.574219-45.472657 134.3125-50.8125 178.566406-48.792969 5.6875.257812 10.433594-4.292969 10.433594-9.992188v-170.316406c-42.507812-3.265625-122.300781-1.101562-189 48.15625zm0 0" fill="#d9dfe9"/><path d="m256 279.347656c-66.699219-49.257812-146.492188-51.421875-189-48.15625v170.316406c0 5.699219 4.746094 10.25 10.433594 9.992188 44.253906-2.019531 116.992187 3.320312 178.566406 48.792969zm0 0" fill="#d9dfe9"/><path d="m67 205.339844v160.925781c0 5.695313 4.746094 10.246094 10.433594 9.988281 44.253906-2.019531 116.992187 3.320313 178.566406 48.792969v-180.945313c-62.015625-45.800781-135.359375-50.886718-179.515625-48.746093-5.316406.253906-9.484375 4.664062-9.484375 9.984375zm0 0" fill="#fff"/><path d="m445 205.339844v160.925781c0 5.695313-4.742188 10.246094-10.433594 9.988281-44.253906-2.019531-116.992187 3.320313-178.566406 48.792969v-180.945313c62.019531-45.800781 135.359375-50.886718 179.519531-48.746093 5.3125.253906 9.480469 4.664062 9.480469 9.984375zm0 0" fill="#fff"/><path d="m346.082031 338.417969c0 14.589843-30.011719 26.800781-70.171875 29.882812h-.007812c-6.402344.488281-13.0625.75-19.902344.75s-13.5-.261719-19.898438-.75h-.011718c-40.160156-3.082031-70.167969-15.292969-70.167969-29.882812 0-9 11.398437-17.089844 29.550781-22.6875 15.988282-4.941407 37.21875-7.949219 60.527344-7.949219 23.3125 0 44.539062 3.007812 60.53125 7.949219 18.148438 5.597656 29.550781 13.6875 29.550781 22.6875zm0 0" fill="#76ffd9"/><path d="m504.5 72.480469-117.140625 151.589843-70.828125 91.660157-40.621094 52.570312h-.011718c-6.398438.488281-13.058594.75-19.898438.75s-13.5-.261719-19.898438-.75h-.011718l-40.621094-52.570312-70.828125-91.660157-117.140625-151.589843zm0 0" fill="#fff"/><path d="m347.390625 275.789062-30.859375 39.941407-40.628906 52.570312c-6.402344.488281-13.0625.75-19.902344.75s-13.5-.261719-19.898438-.75l-40.628906-52.570312-30.863281-39.941407c-16.296875-21.097656-1.269531-51.71875 25.402344-51.71875h131.980469c26.667968 0 41.699218 30.621094 25.398437 51.71875zm0 0" fill="#ffc843"/><path d="m256 244.398438c-11.921875 0-21.585938-9.664063-21.585938-21.589844v-40.707032h43.175782v40.707032c0 11.925781-9.664063 21.589844-21.589844 21.589844zm0 0" fill="#fff"/><path d="m349.671875 111.726562c0 10.957032-8.882813 19.839844-19.839844 19.839844-10.960937 0-19.84375-8.882812-19.84375-19.839844 0-10.960937 8.882813-19.84375 19.84375-19.84375 10.957031 0 19.839844 8.882813 19.839844 19.84375zm0 0" fill="#fff"/><path d="m202.011719 111.726562c0 10.957032-8.882813 19.839844-19.839844 19.839844-10.960937 0-19.84375-8.882812-19.84375-19.839844 0-10.960937 8.882813-19.84375 19.84375-19.84375 10.957031 0 19.839844 8.882813 19.839844 19.84375zm0 0" fill="#fff"/><path d="m191.28125 76.324219 5.625 70.957031c2.441406 30.824219 28.171875 54.59375 59.09375 54.59375s56.652344-23.769531 59.09375-54.59375l5.625-70.957031zm0 0" fill="#fff"/><path d="m331.597656 95.449219h-151.195312c-5.828125 0-10.550782-4.726563-10.550782-10.554688 0-42.742187 34.648438-77.394531 77.390626-77.394531h17.515624c42.742188 0 77.390626 34.652344 77.390626 77.394531.003906 5.828125-4.722657 10.554688-10.550782 10.554688zm0 0" fill="#76ffd9"/><path d="m342.152344 84.894531c0 2.910157-1.179688 5.550781-3.089844 7.460938-1.910156 1.910156-4.542969 3.089843-7.460938 3.089843h-20.21875c2.917969 0 5.546876-1.179687 7.457032-3.089843 1.910156-1.910157 3.089844-4.550781 3.089844-7.460938 0-42.738281-34.648438-77.390625-77.386719-77.390625h20.21875c42.738281 0 77.390625 34.652344 77.390625 77.390625zm0 0" fill="#5de0bf"/><path d="m509.085938 66.546875c-3.277344-2.53125-7.988282-1.925781-10.519532 1.351563l-138.121094 178.734374c-.636718-2.535156-1.53125-5.035156-2.6875-7.464843-6.644531-13.976563-21.046874-22.601563-36.519531-22.601563h-36.148437v-13.863281c5.863281-2.839844 11.339844-6.539063 16.226562-11.054687 12.375-11.433594 19.925782-26.980469 21.257813-43.773438l.761719-9.609375c2.117187.519531 4.296874.800781 6.496093.800781 15.078125 0 27.34375-12.265625 27.34375-27.339844 0-7.699218-3.320312-14.984374-8.839843-20.097656.84375-2.082031 1.316406-4.351562 1.316406-6.734375 0-46.808593-38.082032-84.894531-84.894532-84.894531h-17.511718c-46.8125 0-84.894532 38.085938-84.894532 84.894531 0 2.367188.46875 4.621094 1.300782 6.695313-5.5625 5.09375-8.824219 12.320312-8.824219 20.136718 0 15.074219 12.265625 27.339844 27.34375 27.339844 2.203125 0 4.378906-.28125 6.496094-.800781l.761719 9.609375c1.332031 16.796875 8.882812 32.339844 21.257812 43.773438 4.886719 4.515624 10.359375 8.214843 16.226562 11.054687v13.863281h-36.144531c-15.476562 0-29.878906 8.625-36.523437 22.601563-1.15625 2.429687-2.050782 4.929687-2.6875 7.464843l-138.121094-178.738281c-2.535156-3.273437-7.246094-3.878906-10.523438-1.347656-3.277343 2.535156-3.882812 7.242187-1.347656 10.519531l85.355469 110.453125c-3.613281.066407-7.21875.171875-10.800781.34375-9.320313.449219-16.621094 8.128907-16.621094 17.480469v8.742188l-15.097656.011718c-9.652344.007813-17.496094 7.863282-17.488282 17.515625l.160157 218.847657c.007812 9.648437 7.855469 17.488281 17.503906 17.488281h.011719l422.996094-.3125c9.652343-.007813 17.496093-7.863281 17.488281-17.515625l-.03125-41.890625c-.003907-4.140625-3.359375-7.492188-7.5-7.492188h-.003907c-4.140624 0-7.5 3.359375-7.496093 7.5l.03125 41.894531c0 1.382813-1.117188 2.503907-2.496094 2.503907l-186.429687.140625c53.179687-30.835938 111.429687-35.691406 153.078124-33.785156 4.773438.21875 9.292969-1.460938 12.761719-4.726563 3.613281-3.398437 5.511719-8.246094 5.511719-13.207031v-94.503906c0-4.109376-3.164062-7.691407-7.269531-7.8125-4.246094-.128907-7.730469 3.277343-7.730469 7.496093v95.273438c0 .933593-.484375 1.535156-.773438 1.8125-.285156.273437-.910156.726562-1.816406.683593-46.394531-2.113281-112.472656 3.804688-171.40625 42v-69.5625c45.917969-1.28125 90.074219-14.285156 90.074219-38.027343 0-.257813-.007813-.515625-.019531-.78125 17.273437-3.753907 35.425781-6.011719 54.0625-6.6875 3.824218-.140625 7.148437-2.972657 7.5-6.78125.421875-4.601563-3.28125-8.382813-7.734375-8.21875-20.8125.734375-41.070313 3.363281-60.28125 7.769531-3.371094-3.519531-8.347657-7.050781-15.539063-10.339844 23.640625-7.265625 49.175782-11.445312 76.011719-12.425781 4.074219-.144531 7.535156-3.351563 7.574219-7.425781.042968-4.210938-3.359375-7.578125-7.492188-7.578125-.089844 0-.179687 0-.269531.003906-22.722656.804687-44.589844 3.804687-65.28125 8.9375l13.703125-17.730469c16.574219-3.460937 33.992188-5.554687 51.8125-6.203125 3.824219-.140625 7.144531-2.976562 7.496094-6.785156.421875-4.597656-3.285156-8.375-7.730469-8.214844-12.878906.457031-25.5625 1.648438-37.910156 3.519531l12.808593-16.578124c8.308594-.964844 16.8125-1.625 25.335938-1.933594 3.832031-.140625 7.15625-2.988282 7.496094-6.808594.410156-4.59375-3.289063-8.328125-7.734375-8.195312-4.191407.148437-8.375.390624-12.542969.695312l18.652344-24.140625c7.195312-.117187 14.46875-.015625 21.660156.332031 1.316406.0625 2.34375 1.160156 2.34375 2.496094v66.058594c0 4.105468 3.167969 7.6875 7.273438 7.808594 4.246093.128906 7.726562-3.277344 7.726562-7.496094v-42.914063l14.914062-.011719c.898438 0 1.492188.457032 1.765626.730469.273437.269531.734374.863281.734374 1.765625l.105469 142.4375c.003907 4.140625 3.359375 7.492188 7.5 7.492188h.003907c4.144531-.003906 7.5-3.363282 7.496093-7.503906l-.105469-142.4375c-.003906-6.347657-3.367187-12.175782-9.238281-15.457032-2.503906-1.402344-5.363281-2.027344-8.230469-2.027344h-.046874l-14.898438.011719v-8.457031c0-9.347656-7.296875-17.027344-16.621094-17.476562-3.582031-.175782-7.1875-.28125-10.796875-.34375l85.355469-110.449219c2.53125-3.28125 1.925781-7.992188-1.351562-10.527344zm-166.984376 46.539063c-.628906 5.957031-5.65625 10.671874-11.640624 10.964843-2.089844.101563-4.09375-.304687-5.90625-1.167969l1.578124-19.933593h5.464844c2.03125 0 3.980469-.355469 5.808594-.976563 3.332031 2.574219 5.160156 6.695313 4.695312 11.113282zm-160.46875 10.96875c-5.972656-.25-11.03125-4.914063-11.71875-10.851563-.515624-4.445313 1.320313-8.625 4.6875-11.226563 1.824219.621094 3.769532.972657 5.800782.972657h5.464844l1.582031 19.933593c-1.789063.851563-3.761719 1.257813-5.816407 1.171876zm-1.230468-36.105469c-1.683594 0-3.050782-1.367188-3.050782-3.054688-.003906-38.539062 31.351563-69.894531 69.894532-69.894531h17.511718c38.539063 0 69.894532 31.355469 69.894532 69.894531 0 1.6875-1.371094 3.054688-3.054688 3.054688h-32.484375v-25.097657c0-4.109374-3.164062-7.6875-7.269531-7.8125-4.246094-.125-7.730469 3.277344-7.730469 7.496094v25.414063h-5.945312v-15.421875c0-4.105469-3.167969-7.6875-7.273438-7.808594-4.246093-.128906-7.726562 3.277344-7.726562 7.496094v15.734375zm23.980468 58.738281-3.46875-43.738281h110.171876l-3.46875 43.738281c-2.117188 26.742188-24.792969 47.6875-51.617188 47.6875s-49.5-20.945312-51.617188-47.6875zm65.707032 61.175781v14.539063c0 7.574218-5.8125 14.105468-13.378906 14.480468-8.089844.398438-14.800782-6.066406-14.800782-14.070312v-14.949219c4.59375.988281 9.308594 1.511719 14.089844 1.511719s9.496094-.523438 14.089844-1.511719zm-225.511719 245.085938c-1.382813 0-2.5-1.121094-2.503906-2.5l-.160157-218.847657c0-.902343.457032-1.496093.730469-1.769531.273438-.273437.863281-.730469 1.765625-.734375l15.089844-.007812v171.972656c0 4.976562 1.917969 9.835938 5.550781 13.238281 3.464844 3.242188 7.957031 4.910157 12.726563 4.691407 41.648437-1.90625 99.9375 2.953124 153.140625 33.820312zm203.921875-6.945313c-58.9375-38.195312-125.027344-44.117187-171.40625-42-.914062.042969-1.535156-.410156-1.816406-.683594-.289063-.273437-.777344-.878906-.777344-1.8125v-196.164062c0-1.339844 1.03125-2.4375 2.347656-2.5 7.183594-.34375 14.453125-.449219 21.660156-.332031l18.652344 24.140625c-4.167968-.300782-8.355468-.542969-12.546875-.691406-4.210937-.121094-7.734375 3.199218-7.765625 7.445312-.027344 4.125 3.464844 7.40625 7.589844 7.554688 8.503906.3125 16.988281.972656 25.273438 1.933593l12.8125 16.578125c-12.347657-1.871094-25.035157-3.0625-37.90625-3.519531-4.246094-.148437-7.75 3.222656-7.769532 7.476563-.011718 4.113281 3.464844 7.375 7.574219 7.527343 17.792969.648438 35.207031 2.730469 51.761719 6.191407l13.714844 17.75c-20.6875-5.136719-42.550782-8.144532-65.28125-8.949219-4.238282-.128907-7.742188 3.207031-7.769532 7.457031-.023437 4.121094 3.457032 7.394531 7.574219 7.542969 26.847656.980469 52.378906 5.164062 76.023437 12.433593-7.191406 3.292969-12.15625 6.824219-15.523437 10.335938-19.21875-4.410156-39.488281-7.039062-60.308594-7.777344-4.242187-.152344-7.75 3.222656-7.765625 7.480469-.011718 4.113281 3.46875 7.375 7.578125 7.523437 18.625.679688 36.757813 2.933594 54.015625 6.6875-.011718.265626-.015625.523438-.015625.78125 0 23.742188 44.15625 36.746094 90.074219 38.027344zm-55.695312-121.464844 26.5 34.296876c-29.917969-4.75-45.878907-14.613282-45.878907-20.421876 0-3.363281 6.09375-9.035156 19.378907-13.875zm145.769531 13.875c0 5.808594-15.960938 15.671876-45.878907 20.421876l26.5-34.292969c13.261719 4.824219 19.378907 10.40625 19.378907 13.871093zm3.574219-68.25-.695313 1.042969-69.226563 89.582031c-.066406.085938-.125.175782-.1875.269532h-32.078124c-.066407-.089844-.121094-.183594-.1875-.269532l-69.226563-89.582031-.496094-.722656c-5.066406-7.367187-6.09375-16.933594-2.210937-24.988281 4.203125-8.71875 12.503906-13.933594 22.164062-13.933594h38.253906c.125.394531.257813.785156.398438 1.167969 4.019531 11.046875 14.804688 18.179687 26.5625 18.179687h1.5625c11.753906 0 22.539062-7.132812 26.5625-18.179687.140625-.382813.269531-.773438.394531-1.167969h38.257813c9.609375 0 17.875 5.160156 22.097656 13.800781 3.890625 7.957031 2.96875 17.433594-1.945312 24.800781zm0 0" fill="#474d54"/><path d="m291.613281 287.261719h18.375c4.144531 0 7.5-3.359375 7.5-7.5 0-4.144531-3.355469-7.5-7.5-7.5h-18.375c-4.140625 0-7.5 3.355469-7.5 7.5 0 4.140625 3.359375 7.5 7.5 7.5zm0 0" fill="#fff"/><path d="m234.546875 120.742188c-.042969-4.140626-3.484375-7.472657-7.578125-7.421876h-.09375c-4.140625.042969-7.417969 3.4375-7.375 7.578126.042969 4.117187 3.4375 7.421874 7.546875 7.421874h.078125c4.140625-.042968 7.464844-3.4375 7.421875-7.578124zm0 0" fill="#474d54"/><path d="m285.046875 128.320312h.078125c4.140625-.042968 7.464844-3.4375 7.421875-7.578124-.042969-4.113282-3.394531-7.421876-7.496094-7.421876-.027343 0-.054687 0-.082031 0h-.09375c-4.140625.042969-7.417969 3.4375-7.375 7.578126.042969 4.117187 3.4375 7.421874 7.546875 7.421874zm0 0" fill="#474d54"/><path d="m283.625 149.25c.652344-4.09375-2.132812-7.9375-6.222656-8.589844-4.101563-.648437-7.9375 2.132813-8.589844 6.222656-1.011719 6.335938-6.398438 10.933594-12.8125 10.933594s-11.800781-4.597656-12.8125-10.933594c-.652344-4.089843-4.492188-6.871093-8.589844-6.222656-4.089844.652344-6.875 4.496094-6.222656 8.589844 2.179688 13.652344 13.796875 23.566406 27.625 23.566406 13.824219 0 25.445312-9.914062 27.625-23.566406zm0 0" fill="#474d54"/><g fill="#e37f31"><path d="m404.933594 106.730469c.070312 0 .136718.003906.207031.003906 4.046875 0 7.382813-3.226563 7.492187-7.300781l.011719-.394532c.109375-4.144531-3.15625-7.589843-7.296875-7.699218-4.15625-.097656-7.585937 3.152344-7.699218 7.292968l-.007813.398438c-.113281 4.140625 3.152344 7.589844 7.292969 7.699219zm0 0"/><path d="m405.441406 116.722656c-4.167968-.105468-7.59375 3.136719-7.714844 7.273438l-.015624.398437c-.117188 4.140625 3.136718 7.597657 7.277343 7.71875.074219 0 .152344.003907.226563.003907 4.039062 0 7.371094-3.214844 7.492187-7.28125l.011719-.398438c.121094-4.140625-3.136719-7.59375-7.277344-7.714844zm0 0"/><path d="m410.171875 111.460938c-.121094 4.140624 3.136719 7.597656 7.277344 7.71875l.398437.011718c.074219.003906.148438.003906.222656.003906 4.042969 0 7.375-3.214843 7.496094-7.277343.121094-4.140625-3.136718-7.597657-7.277344-7.71875l-.398437-.011719c-4.167969-.128906-7.59375 3.132812-7.71875 7.273438zm0 0"/><path d="m392.066406 119.253906.398438.011719c.074218.003906.152344.003906.226562.003906 4.039063 0 7.371094-3.214843 7.492188-7.28125.121094-4.140625-3.136719-7.59375-7.277344-7.714843l-.394531-.011719c-4.179688-.09375-7.597657 3.136719-7.71875 7.273437-.125 4.140625 3.132812 7.597656 7.273437 7.71875zm0 0"/><path d="m146.539062 147.066406c-.070312-.003906-.140624-.003906-.207031-.003906-4.046875 0-7.382812 3.226562-7.492187 7.296875l-.011719.398437c-.113281 4.140626 3.152344 7.589844 7.292969 7.699219.070312.003907.140625.003907.207031.003907 4.046875 0 7.382813-3.226563 7.492187-7.296876l.011719-.398437c.113281-4.140625-3.15625-7.589844-7.292969-7.699219zm0 0"/><path d="m146.195312 187.839844c.070313.003906.140626.003906.207032.003906 4.046875 0 7.382812-3.226562 7.492187-7.296875l.011719-.398437c.113281-4.140626-3.152344-7.589844-7.296875-7.699219-4.148437-.117188-7.585937 3.15625-7.695313 7.292969l-.011718.398437c-.113282 4.140625 3.152344 7.589844 7.292968 7.699219zm0 0"/><path d="m159.035156 174.917969c.074219.003906.152344.003906.226563.003906 4.039062 0 7.371093-3.214844 7.492187-7.277344.121094-4.140625-3.136718-7.597656-7.277344-7.71875l-.394531-.011719c-4.179687-.097656-7.597656 3.136719-7.71875 7.273438-.121093 4.140625 3.136719 7.597656 7.277344 7.71875zm0 0"/><path d="m125.980469 167.265625c-.125 4.136719 3.136719 7.59375 7.273437 7.714844l.398438.011719c.074218.003906.148437.003906.226562.003906 4.039063 0 7.371094-3.214844 7.492188-7.277344.121094-4.140625-3.136719-7.597656-7.277344-7.71875l-.394531-.011719c-4.183594-.117187-7.597657 3.136719-7.71875 7.277344zm0 0"/><path d="m140.078125 23.78125c.070313.003906.136719.003906.207031.003906 4.046875 0 7.382813-3.226562 7.492188-7.296875l.011718-.398437c.113282-4.140625-3.152343-7.589844-7.292968-7.699219-.070313-.003906-.140625-.003906-.207032-.003906-4.046874 0-7.382812 3.226562-7.492187 7.296875l-.011719.398437c-.113281 4.140625 3.152344 7.589844 7.292969 7.699219zm0 0"/><path d="m140.132812 49.164062c.078126.003907.152344.003907.226563.003907 4.039063 0 7.371094-3.214844 7.492187-7.28125l.011719-.394531c.121094-4.140626-3.136719-7.597657-7.273437-7.71875-4.148438-.089844-7.597656 3.136718-7.71875 7.277343l-.011719.394531c-.125 4.140626 3.136719 7.597657 7.273437 7.71875zm0 0"/><path d="m145.320312 28.53125c-.113281 4.140625 3.152344 7.589844 7.292969 7.699219l.398438.011719c.066406.003906.136719.003906.207031.003906 4.046875 0 7.382812-3.226563 7.492188-7.296875.113281-4.144531-3.15625-7.589844-7.296876-7.699219l-.394531-.011719c-.070312-.003906-.136719-.003906-.207031-.003906-4.046875 0-7.382812 3.226563-7.492188 7.296875zm0 0"/><path d="m127.230469 36.304688.398437.011718c.070313.003906.136719.003906.207032.003906 4.046874 0 7.382812-3.226562 7.492187-7.296874.113281-4.140626-3.152344-7.589844-7.292969-7.699219l-.398437-.011719c-4.171875-.105469-7.589844 3.152344-7.699219 7.292969-.113281 4.140625 3.152344 7.589843 7.292969 7.699219zm0 0"/></g></svg>