<svg height="512" viewBox="0 0 64 64" width="512" xmlns="http://www.w3.org/2000/svg"><g id="4th-grade-curriculum/사이버물리시스템" data-name="Fill Outlines"><g id="Color"><g><path d="m41 43-2.7-4.053a11.108 11.108 0 0 0 -9.246-4.947h-14.944a11.107 11.107 0 0 0 -8.435 3.88 11.108 11.108 0 0 0 -2.675 7.23v6.89a4 4 0 0 0 4 4h44v-9.36a2 2 0 0 0 -1.608-1.962z" fill="#d0d8da"/><path d="m49 49h2v-2.36a2 2 0 0 0 -1.608-1.962l-2.392-.478v2.8a2 2 0 0 0 2 2z" fill="#aae1f9"/><path d="m17.89 50a10.89 10.89 0 0 1 -10.89-10.89 11.064 11.064 0 0 1 .37-2.827 11.075 11.075 0 0 0 -4.37 8.827v6.89a4 4 0 0 0 4 4h44v-6z" fill="#93999a"/><g fill="#aae1f9"><path d="m37 44h-11v-6h3.789a6 6 0 0 1 4.992 2.672z"/><path d="m18 38h8v6h-8z"/><path d="m8 44h6v-6a6 6 0 0 0 -6 6z"/><circle cx="13" cy="56" r="5"/><circle cx="38" cy="56" r="5"/></g><path d="m3 47h2a2 2 0 0 1 2 2 2 2 0 0 1 -2 2h-2a0 0 0 0 1 0 0v-4a0 0 0 0 1 0 0z" fill="#57b7eb"/><path d="m32 3a6 6 0 0 0 -6 6c0 6 6 10 6 10s6-4 6-10a6 6 0 0 0 -6-6zm0 8a2 2 0 1 1 2-2 2 2 0 0 1 -2 2z" fill="#f9e109"/><path d="m44 5h11v4h-11z" fill="#aae1f9"/><path d="m28 6a9.068 9.068 0 0 1 .15-1.6 5.988 5.988 0 0 0 -2.15 4.6c0 6 6 10 6 10a16.8 16.8 0 0 0 4-4.058 9 9 0 0 1 -8-8.942z" fill="#fcbc04"/><path d="m49 7a3.982 3.982 0 0 1 -3.445-2h-1.555v4h11v-2z" fill="#57b7eb"/><path d="m37 44h-11v-6z" fill="#57b7eb"/><path d="m26 44h-8v-6z" fill="#57b7eb"/><path d="m8 44h6v-6a6 6 0 0 0 -6 6z" fill="#aae1f9"/><path d="m8 44h6l-4.243-4.243a5.985 5.985 0 0 0 -1.757 4.243z" fill="#57b7eb"/><path d="m4 47h-1v4h2a1.992 1.992 0 0 0 1.737-1.027 2.989 2.989 0 0 1 -2.737-2.973z" fill="#4891d3"/><path d="m49 46v-1.4l-2-.4v2.8a2 2 0 0 0 2 2h2v-1a2 2 0 0 1 -2-2z" fill="#57b7eb"/><circle cx="38" cy="56" fill="#57b7eb" r="2"/><circle cx="13" cy="56" fill="#57b7eb" r="2"/></g></g><g id="Outline"><g fill="#323232"><path d="m49.588 43.7-7.988-1.6-2.47-3.707a12.084 12.084 0 0 0 -10.076-5.393h-14.944a12.111 12.111 0 0 0 -12.11 12.11v6.89a5.006 5.006 0 0 0 5 5h.09a6 6 0 1 0 0-2h-.09a3 3 0 0 1 -3-3h1a3 3 0 0 0 0-6h-1v-.89a10.111 10.111 0 0 1 10.11-10.11h14.944a10.089 10.089 0 0 1 8.412 4.5l2.7 4.053a1 1 0 0 0 .636.425l5.198 1.042v1.98a3 3 0 0 0 3 3h1v5h-3a1 1 0 0 0 0 2h4a1 1 0 0 0 1-1v-9.36a3.007 3.007 0 0 0 -2.412-2.94zm-36.588 8.3a4 4 0 1 1 -4 4 4 4 0 0 1 4-4zm-8-4a1 1 0 0 1 0 2h-1v-2zm44 0a1 1 0 0 1 -1-1v-1.58l1.2.239a1 1 0 0 1 .8.981v1.36z"/><path d="m29 55h-7a1 1 0 0 0 0 2h7a1 1 0 0 0 0-2z"/><path d="m18 43a1 1 0 0 0 0 2h7v7a1 1 0 0 0 2 0v-7h10a1 1 0 0 0 .832-1.555l-2.219-3.328a6.987 6.987 0 0 0 -5.824-3.117h-11.789a1 1 0 0 0 -1 1v2a1 1 0 0 0 2 0v-1h6v4zm15.949-1.773 1.182 1.773h-8.131v-4h2.789a4.989 4.989 0 0 1 4.16 2.227z"/><path d="m7 44a1 1 0 0 0 1 1h6a1 1 0 0 0 1-1v-6a1 1 0 0 0 -1-1 7.008 7.008 0 0 0 -7 7zm6-1h-3.9a5.013 5.013 0 0 1 3.9-3.9z"/><path d="m38 50a6 6 0 1 0 6 6 6.006 6.006 0 0 0 -6-6zm0 10a4 4 0 1 1 4-4 4 4 0 0 1 -4 4z"/><circle cx="13" cy="56" r="1"/><circle cx="38" cy="56" r="1"/><path d="m33 48a1 1 0 0 0 -1-1h-2a1 1 0 0 0 0 2h2a1 1 0 0 0 1-1z"/><path d="m20 47h-2a1 1 0 0 0 0 2h2a1 1 0 0 0 0-2z"/><path d="m59 33h-12a1 1 0 0 1 -1-1v-3a3 3 0 0 0 -3-3h-9a1 1 0 0 1 -1-1v-2a1 1 0 0 0 -2 0v2a3 3 0 0 0 3 3h9a1 1 0 0 1 1 1v3a3 3 0 0 0 3 3h12a1 1 0 0 1 1 1v14a1 1 0 0 1 -1 1h-4a1 1 0 0 0 0 2h4a3 3 0 0 0 3-3v-14a3 3 0 0 0 -3-3z"/><path d="m12.757 23.757a6 6 0 0 1 8.486 0 1 1 0 0 0 1.414-1.414 8 8 0 0 0 -11.314 0 1 1 0 0 0 1.414 1.414z"/><path d="m19.121 26.879a1 1 0 0 0 .707-1.707 4.093 4.093 0 0 0 -5.656 0 1 1 0 0 0 1.414 1.414 2.047 2.047 0 0 1 2.828 0 1 1 0 0 0 .707.293z"/><circle cx="17" cy="29" r="1"/><path d="m44 14h10a1 1 0 0 0 0-2h-10a1 1 0 0 0 0 2z"/><path d="m44 18h2a1 1 0 0 0 0-2h-2a1 1 0 0 0 0 2z"/><path d="m44 10h11a1 1 0 0 0 1-1v-4a1 1 0 0 0 -1-1h-11a1 1 0 0 0 -1 1v4a1 1 0 0 0 1 1zm1-4h9v2h-9z"/><path d="m31.445 19.832a1 1 0 0 0 1.112 0 17.337 17.337 0 0 0 5.091-5.689 1 1 0 1 0 -1.766-.937 15.341 15.341 0 0 1 -3.882 4.545c-1.408-1.12-5-4.4-5-8.751a5 5 0 0 1 10 0c0 .255-.024.5-.047.751a1 1 0 1 0 1.991.188c.029-.31.056-.619.056-.939a7 7 0 0 0 -14 0c0 6.461 6.182 10.657 6.445 10.832z"/><path d="m29 9a3 3 0 1 0 3-3 3 3 0 0 0 -3 3zm4 0a1 1 0 1 1 -1-1 1 1 0 0 1 1 1z"/></g></g></g></svg>