<svg id="Capa_1" enable-background="new 0 0 512 512" height="512" viewBox="0 0 512 512" width="512" xmlns="http://www.w3.org/2000/svg"><g><path d="m299.869 183.825-295.858 295.858c-5.348 5.348-5.348 14.02 0 19.368l8.839 8.839c5.348 5.348 14.019 5.348 19.368 0l295.858-295.858z" fill="#928392"/><path d="m8.197 503.237 305.542-305.542-13.87-13.87-295.858 295.858c-5.348 5.348-5.348 14.02 0 19.368z" fill="#7a6d79"/><path d="m361.146 144.146-16.534-5.14-45.03 45.106 28.207 28.207 45.134-45.21-5.046-16.232c-.999-3.215-3.516-5.732-6.731-6.731z" fill="#fbc700"/><path d="m365.03 146.403c-1.1-1.014-2.413-1.8-3.884-2.257l-16.534-5.14-45.03 45.106 13.87 13.869z" fill="#ffa812"/><path d="m392.522 257.41h-4.235v-4.235c0-4.267-3.459-7.726-7.726-7.726s-7.726 3.459-7.726 7.726v4.235h-4.235c-4.267 0-7.726 3.459-7.726 7.726s3.459 7.726 7.726 7.726h4.235v4.235c0 4.267 3.459 7.726 7.726 7.726s7.726-3.459 7.726-7.726v-4.235h4.235c4.267 0 7.726-3.459 7.726-7.726s-3.459-7.726-7.726-7.726z" fill="#ffea7e"/><path d="m315.118 44.589h-10.424v-10.424c0-4.267-3.459-7.726-7.726-7.726s-7.726 3.459-7.726 7.726v10.424h-10.424c-4.267 0-7.726 3.459-7.726 7.726s3.459 7.726 7.726 7.726h10.424v10.424c0 4.267 3.459 7.726 7.726 7.726s7.726-3.459 7.726-7.726v-10.424h10.424c4.267 0 7.726-3.459 7.726-7.726s-3.459-7.726-7.726-7.726z" fill="#ffea7e"/><path d="m484.287 211.338c-6.652-3.403-12.087-8.846-15.474-15.508-.736-1.447-2.213-2.367-3.837-2.367s-3.101.919-3.837 2.367c-3.388 6.661-8.822 12.105-15.474 15.508-1.442.738-2.357 2.212-2.357 3.832v.106c0 1.603.887 3.082 2.314 3.81 6.631 3.382 12.052 8.79 15.449 15.411.73 1.422 2.206 2.304 3.804 2.304h.2c1.598 0 3.075-.882 3.804-2.304 3.398-6.621 8.818-12.029 15.449-15.411 1.428-.728 2.314-2.207 2.314-3.81v-.106c.001-1.62-.913-3.094-2.355-3.832z" fill="#ffe02f"/><path d="m462.362 219.085c-1.428-.728-2.314-2.207-2.314-3.81v-.106c0-1.62.915-3.094 2.357-3.832 4.205-2.151 7.919-5.121 10.941-8.695-1.759-2.08-3.287-4.362-4.533-6.813-.736-1.447-2.213-2.367-3.837-2.367s-3.101.919-3.837 2.367c-3.388 6.661-8.822 12.105-15.475 15.508-1.442.738-2.357 2.212-2.357 3.832v.106c0 1.603.886 3.082 2.314 3.81 6.631 3.382 12.052 8.79 15.449 15.411.73 1.422 2.206 2.304 3.804 2.304h.2c1.598 0 3.075-.882 3.805-2.304 1.233-2.402 2.739-4.639 4.466-6.683-3.031-3.589-6.758-6.573-10.983-8.728z" fill="#fbc700"/><path d="m509.95 143.515-34.697-46.496c-2.013-2.698-2.57-6.214-1.489-9.402l18.632-54.942c2.722-8.029-4.943-15.693-12.971-12.971l-54.942 18.632c-3.188 1.081-6.704.524-9.402-1.489l-46.496-34.698c-6.794-5.07-16.453-.149-16.344 8.328l.742 58.01c.043 3.366-1.573 6.538-4.322 8.481l-47.367 33.498c-6.921 4.895-5.226 15.601 2.87 18.118l55.4 17.221c3.215.999 5.732 3.516 6.731 6.731l17.221 55.4c2.516 8.095 13.223 9.791 18.118 2.87l33.498-47.367c1.943-2.749 5.115-4.365 8.481-4.322l58.01.742c8.476.108 13.397-9.55 8.327-16.344z" fill="#ffe02f"/><g><path d="m414.866 146.965c-1-3.215-3.517-5.732-6.731-6.731l-55.4-17.221c-8.095-2.516-9.791-13.223-2.87-18.118l47.367-33.498c2.749-1.943 4.365-5.115 4.321-8.481l-.467-36.512-32.501-24.255c-6.794-5.07-16.453-.149-16.344 8.328l.741 58.01c.043 3.366-1.573 6.538-4.321 8.481l-47.367 33.498c-6.922 4.895-5.226 15.601 2.87 18.118l55.4 17.221c3.215.999 5.732 3.516 6.731 6.731l17.221 55.4c2.516 8.095 13.223 9.791 18.118 2.87l22.978-32.492z" fill="#fbc700"/></g></g></svg>