<svg height="512" viewBox="0 0 64 64" width="512" xmlns="http://www.w3.org/2000/svg"><g id="idea_business_plan_finance_investment" data-name="idea business plan finance investment"><path d="m20.438 59h23.125v4h-23.125z"/><path d="m20.438 51h23.125v4h-23.125z"/><path d="m13.5 21.489a18.5 18.5 0 1 1 30.062 14.42v9.091h-23.124v-9.091a18.439 18.439 0 0 1 -6.938-14.42z" fill="#4370ff"/><path d="m52.368 19.127a20.5 20.5 0 1 0 -33.93 17.713v10.16h11.562v-4h-7.562v-8.05a16.674 16.674 0 0 1 -6.938-13.461 16.5 16.5 0 1 1 26.063 13.461v8.05h-7.563v4h11.564v-10.16a20.454 20.454 0 0 0 6.804-17.713z"/></g></svg>