<svg id="4th-grade-curriculum/머신러닝" enable-background="new 0 0 511.996 511.996" height="512" viewBox="0 0 511.996 511.996" width="512" xmlns="http://www.w3.org/2000/svg"><g><g><g><path d="m437.41 459.5c0 5.505-5.536 9.302-10.659 7.285-13.655-5.377-31.876-10.193-53.281-14.01-34.46-6.13-75.08-9.38-117.47-9.38s-83.01 3.25-117.47 9.38c-21.405 3.817-39.627 8.633-53.281 14.01-5.122 2.017-10.659-1.78-10.659-7.285 0-12.83 8.501-24.108 20.839-27.625 40.708-11.605 98.206-18.479 160.571-18.479s119.862 6.874 160.571 18.479c12.338 3.518 20.839 14.795 20.839 27.625z" fill="#90bac4"/></g><g><path d="m437.41 459.5c0 5.505-5.536 9.302-10.659 7.285-13.655-5.377-31.876-10.193-53.281-14.01-34.46-6.13-75.08-9.38-117.47-9.38s-83.01 3.25-117.47 9.38c-21.405 3.817-39.627 8.633-53.281 14.01-5.122 2.017-10.659-1.78-10.659-7.285 0-12.83 8.501-24.108 20.839-27.625 40.708-11.605 98.206-18.479 160.571-18.479s119.862 6.874 160.571 18.479c12.338 3.518 20.839 14.795 20.839 27.625z" fill="#90bac4"/></g><g><path d="m437.41 459.504c0 5.5-5.54 9.3-10.66 7.28-7.47-2.95-16.32-5.72-26.31-8.25 2.76-1.17 4.81-3.88 4.81-7.23 0-11.41-6.73-21.6-16.9-26.19 10.09 2.03 19.54 4.29 28.22 6.76 12.34 3.52 20.84 14.8 20.84 27.63z" fill="#7da2b0"/></g><path d="m306.03 367.234v77.71c-16.2-1.03-32.97-1.55-50.03-1.55s-33.83.52-50.03 1.55v-77.71z" fill="#eff5f6"/><path d="m205.97 367.234v34.742h48.1c10.207 0 18.482 8.275 18.482 18.482v23.121c11.356.228 22.555.67 33.478 1.364v-77.71h-100.06z" fill="#cbe5e7"/><g><path d="m504.497 328.429h-496.997v-271.949c0-6.523 5.288-11.811 11.811-11.811h473.374c6.523 0 11.811 5.288 11.811 11.811v271.949z" fill="#688d97"/><path d="m504.5 56.484v271.94h-44.516v-271.94c0-6.532-5.291-11.811-11.811-11.811h44.516c6.519 0 11.811 5.28 11.811 11.811z" fill="#557983"/><path d="m492.685 378.048h-473.374c-6.523 0-11.811-5.288-11.811-11.811v-44.611h496.997v44.611c0 6.523-5.289 11.811-11.812 11.811z" fill="#eff5f6"/><path d="m504.5 321.621v44.611c0 6.532-5.292 11.811-11.811 11.811h-44.516c6.52 0 11.811-5.28 11.811-11.811v-44.611z" fill="#cbe5e7"/></g></g><g><g><g><path d="m80.691 280.642h-23.973c-5.523 0-10-4.477-10-10v-23.973c0-5.523 4.477-10 10-10h23.973c5.523 0 10 4.477 10 10v23.973c0 5.522-4.477 10-10 10z" fill="#24d1f8"/><path d="m90.689 246.665v23.98c0 5.52-4.47 10-10 10h-21.98c5.52 0 10-4.48 10-10v-23.98c0-5.52-4.48-10-10-10h21.98c5.53 0 10 4.48 10 10z" fill="#21c1f8"/><path d="m150.275 280.646h-23.973c-5.523 0-10-4.477-10-10v-23.973c0-5.523 4.477-10 10-10h23.973c5.523 0 10 4.477 10 10v23.973c0 5.523-4.477 10-10 10z" fill="#fb4a59"/><path d="m160.272 246.671v23.97c0 5.53-4.47 10-10 10h-21.98c5.52 0 10-4.47 10-10v-23.97c0-5.52-4.48-10-10-10h21.98c5.53 0 10 4.48 10 10z" fill="#f82f40"/></g><path d="m150.275 205.107h-93.557c-5.523 0-10-4.477-10-10v-28.564c0-5.523 4.477-10 10-10h93.557c5.523 0 10 4.477 10 10v28.564c0 5.523-4.477 10-10 10z" fill="#eff5f6"/><path d="m160.274 166.539v28.57c0 5.52-4.48 10-10 10h-27.54c5.52 0 10-4.48 10-10v-28.57c0-5.52-4.48-10-10-10h27.54c5.52 0 10 4.48 10 10z" fill="#cbe5e7"/></g><g><path d="m455.282 290.851h-78.52c-5.523 0-10-4.477-10-10v-196.242c0-5.523 4.477-10 10-10h78.52c5.523 0 10 4.477 10 10v196.242c0 5.523-4.477 10-10 10z" fill="#eff5f6"/><path d="m465.28 84.605v196.249c0 5.52-4.48 10-10 10h-27.86c5.52 0 10-4.48 10-10v-196.249c0-5.52-4.48-10-10-10h27.86c5.52 0 10 4.48 10 10z" fill="#cbe5e7"/><path d="m366.765 103.915h98.515v157.629h-98.515z" fill="#68dbf9"/><path d="m437.42 103.915h27.86v157.629h-27.86z" fill="#21c1f8"/></g><g><g><g><circle cx="307.23" cy="142.95" fill="#fcb3a9" r="15.955"/><path d="m323.183 142.95c0 8.811-7.141 15.957-15.951 15.957-2.452 0-4.776-.555-6.855-1.547 5.377-2.563 9.097-8.057 9.097-14.41s-3.719-11.847-9.097-14.41c2.079-.993 4.402-1.547 6.855-1.547 8.81 0 15.951 7.146 15.951 15.957z" fill="#fc9085"/></g></g><g><g><circle cx="232.859" cy="128.187" fill="#fcb3a9" r="15.955"/><path d="m248.812 128.186c0 8.811-7.141 15.957-15.951 15.957-2.452 0-4.776-.555-6.855-1.547 5.377-2.563 9.097-8.057 9.097-14.41s-3.719-11.847-9.097-14.41c2.079-.993 4.402-1.547 6.855-1.547 8.81 0 15.951 7.147 15.951 15.957z" fill="#fc9085"/></g></g><g><circle cx="259.691" cy="187.91" fill="#f82f40" r="56.567"/><path d="m316.263 187.909c0 31.237-25.332 56.569-56.569 56.569-4.498 0-8.871-.526-13.073-1.522 24.94-5.905 43.487-28.309 43.487-55.048s-18.547-49.143-43.487-55.048c4.201-.995 8.575-1.522 13.073-1.522 31.236.002 56.569 25.334 56.569 56.571z" fill="#e22334"/></g><g><g><circle cx="286.044" cy="237.274" fill="#fcb3a9" r="15.955"/><path d="m301.996 237.273c0 8.811-7.141 15.957-15.951 15.957-2.452 0-4.776-.555-6.855-1.547 5.377-2.563 9.097-8.057 9.097-14.41s-3.719-11.847-9.097-14.41c2.079-.993 4.402-1.547 6.855-1.547 8.81 0 15.951 7.147 15.951 15.957z" fill="#fc9085"/></g></g><g><g><circle cx="276.464" cy="179.964" fill="#fcb3a9" r="15.955"/><path d="m292.416 179.964c0 8.811-7.141 15.957-15.951 15.957-2.452 0-4.776-.555-6.855-1.547 5.377-2.563 9.097-8.057 9.097-14.41s-3.719-11.847-9.097-14.41c2.079-.993 4.402-1.547 6.855-1.547 8.811 0 15.951 7.146 15.951 15.957z" fill="#fc9085"/></g></g><g><g><circle cx="221.454" cy="223.716" fill="#fcb3a9" r="15.955"/><path d="m237.406 223.715c0 8.811-7.141 15.957-15.951 15.957-2.452 0-4.776-.555-6.855-1.547 5.377-2.563 9.097-8.057 9.097-14.41 0-6.352-3.719-11.847-9.097-14.41 2.079-.993 4.402-1.547 6.855-1.547 8.811 0 15.951 7.147 15.951 15.957z" fill="#fc9085"/></g></g></g></g><g><path d="m206.627 452.419c15.968-1.012 32.577-1.525 49.373-1.525 16.822 0 33.563.527 49.554 1.542 23.917 1.519 46.325 4.117 66.6 7.724 20.684 3.688 38.613 8.393 51.849 13.604 1.811.713 3.71 1.063 5.6 1.063 3.026 0 6.029-.899 8.605-2.654 4.197-2.857 6.703-7.595 6.703-12.673 0-16.101-10.809-30.426-26.283-34.838-28.576-8.147-64.844-13.921-105.097-16.767v-22.348h179.155c10.647 0 19.311-8.663 19.311-19.311v-309.756c0-10.648-8.663-19.312-19.311-19.312h-252.752c-4.143 0-7.5 3.357-7.5 7.5s3.357 7.5 7.5 7.5h252.752c2.377 0 4.311 1.935 4.311 4.312v257.646h-481.997v-257.646c0-2.377 1.935-4.312 4.312-4.312h186.798c4.143 0 7.5-3.357 7.5-7.5s-3.357-7.5-7.5-7.5h-186.798c-10.649 0-19.312 8.664-19.312 19.312v309.758c0 10.647 8.663 19.311 19.312 19.311h179.158v22.348c-40.248 2.846-76.528 8.623-105.097 16.767-15.475 4.411-26.283 18.736-26.283 34.836 0 5.078 2.506 9.815 6.703 12.673 2.577 1.755 5.579 2.655 8.605 2.654 1.89 0 3.789-.351 5.599-1.063 9.706-3.821 21.755-7.328 35.813-10.42 4.046-.891 6.604-4.892 5.714-8.937s-4.884-6.601-8.937-5.714c-14.831 3.263-27.645 7.002-38.088 11.113-.071.028-.139.055-.265-.032-.146-.099-.146-.2-.146-.274 0-9.435 6.331-17.828 15.396-20.412 27.342-7.795 62.18-13.357 100.983-16.156v15.02c-15.361 1.127-30.195 2.708-44.184 4.716-4.1.588-6.947 4.389-6.358 8.489.536 3.739 3.744 6.436 7.414 6.436.354 0 .714-.025 1.075-.077 15.725-2.256 32.736-3.984 50.213-5.097zm207.887-13.331c9.065 2.584 15.396 10.978 15.396 20.412 0 .074 0 .176-.146.274-.126.088-.193.062-.266.032-14.147-5.57-33.066-10.555-54.716-14.415-18.822-3.349-39.404-5.839-61.253-7.437v-15.023c38.808 2.8 73.636 8.36 100.985 16.157zm-115.984-2.091c-13.863-.732-28.133-1.103-42.53-1.103s-28.667.37-42.53 1.103v-51.448h85.061v51.448zm198.466-70.759c0 2.377-1.934 4.311-4.311 4.311h-473.373c-2.377 0-4.312-1.934-4.312-4.311v-37.111h481.996z"/><path d="m56.718 229.168c-9.649 0-17.5 7.851-17.5 17.5v23.974c0 9.649 7.851 17.5 17.5 17.5h23.974c9.649 0 17.5-7.851 17.5-17.5v-23.974c0-9.649-7.851-17.5-17.5-17.5zm26.473 17.5v23.974c0 1.379-1.121 2.5-2.5 2.5h-23.973c-1.379 0-2.5-1.121-2.5-2.5v-23.974c0-1.379 1.121-2.5 2.5-2.5h23.974c1.378 0 2.499 1.122 2.499 2.5z"/><path d="m150.274 229.172h-23.973c-9.649 0-17.5 7.851-17.5 17.5v23.974c0 9.649 7.851 17.5 17.5 17.5h23.973c9.649 0 17.5-7.851 17.5-17.5v-23.974c0-9.649-7.85-17.5-17.5-17.5zm2.5 41.474c0 1.379-1.121 2.5-2.5 2.5h-23.973c-1.379 0-2.5-1.121-2.5-2.5v-23.974c0-1.379 1.121-2.5 2.5-2.5h23.973c1.379 0 2.5 1.121 2.5 2.5z"/><path d="m167.774 166.543c0-9.649-7.851-17.5-17.5-17.5h-93.556c-9.649 0-17.5 7.851-17.5 17.5v28.563c0 9.649 7.851 17.5 17.5 17.5h93.557c9.649 0 17.5-7.851 17.5-17.5v-28.563zm-15 28.564c0 1.379-1.121 2.5-2.5 2.5h-93.556c-1.379 0-2.5-1.121-2.5-2.5v-28.563c0-1.379 1.121-2.5 2.5-2.5h93.557c1.379 0 2.5 1.121 2.5 2.5v28.563z"/><path d="m46.718 116.958h21.986c4.143 0 7.5-3.357 7.5-7.5s-3.357-7.5-7.5-7.5h-21.986c-4.143 0-7.5 3.357-7.5 7.5s3.357 7.5 7.5 7.5z"/><path d="m46.718 92.314h113.555c4.143 0 7.5-3.357 7.5-7.5s-3.357-7.5-7.5-7.5h-113.555c-4.143 0-7.5 3.357-7.5 7.5s3.357 7.5 7.5 7.5z"/><path d="m465.282 151.237c4.143 0 7.5-3.357 7.5-7.5v-59.128c0-9.649-7.851-17.5-17.5-17.5h-78.521c-9.649 0-17.5 7.851-17.5 17.5v196.242c0 9.649 7.851 17.5 17.5 17.5h78.521c9.649 0 17.5-7.851 17.5-17.5v-103.29c0-4.143-3.357-7.5-7.5-7.5s-7.5 3.357-7.5 7.5v76.485h-83.521v-142.632h83.521v32.323c0 4.142 3.358 7.5 7.5 7.5zm-7.5 117.809v11.805c0 1.379-1.121 2.5-2.5 2.5h-78.521c-1.379 0-2.5-1.121-2.5-2.5v-11.805zm-83.52-172.632v-11.805c0-1.379 1.121-2.5 2.5-2.5h78.521c1.379 0 2.5 1.121 2.5 2.5v11.805z"/><path d="m255.921 123.961c-1.998-10.922-11.574-19.229-23.061-19.229-12.936 0-23.46 10.524-23.46 23.46 0 5.348 1.797 10.396 4.989 14.455-11.591 11.6-18.769 27.61-18.769 45.265 0 8.675 1.716 17.05 5.062 24.929-1.71 3.253-2.683 6.952-2.683 10.875 0 12.934 10.521 23.455 23.455 23.455 3.372 0 6.578-.721 9.479-2.008 8.87 4.461 18.781 6.82 28.757 6.82 2.596 0 5.185-.163 7.732-.471 4.291 5.598 11.04 9.217 18.622 9.217 12.933 0 23.454-10.521 23.454-23.454 0-2.644-.446-5.184-1.256-7.557 10.03-11.622 15.518-26.349 15.518-41.805 0-8.707-1.753-17.01-4.913-24.586 7.154-4.069 11.843-11.735 11.843-20.374 0-12.936-10.523-23.46-23.459-23.46-8.183 0-15.5 4.163-19.713 10.716-8.421-4.077-17.862-6.367-27.828-6.367-1.266-.001-2.521.046-3.769.119zm-23.061-4.229c4.11 0 7.541 2.955 8.293 6.854-5.32 1.611-10.349 3.894-14.988 6.754-1.125-1.453-1.765-3.245-1.765-5.148 0-4.665 3.795-8.46 8.46-8.46zm-19.861 103.983c0-4.661 3.793-8.454 8.455-8.454 4.661 0 8.454 3.793 8.454 8.454 0 4.662-3.793 8.455-8.454 8.455-4.662 0-8.455-3.793-8.455-8.455zm73.045 22.013c-4.662 0-8.455-3.793-8.455-8.454 0-4.662 3.793-8.455 8.455-8.455 4.661 0 8.454 3.793 8.454 8.455 0 4.661-3.793 8.454-8.454 8.454zm12.719-28.145c-3.667-2.377-8.033-3.764-12.719-3.764-12.804 0-23.237 10.313-23.445 23.068-.966.057-1.935.095-2.909.095-5.942 0-11.673-1.039-17.114-3.075 1.494-3.084 2.333-6.541 2.333-10.192 0-12.933-10.521-23.454-23.454-23.454-3.103 0-6.064.611-8.777 1.71-1.356-4.523-2.057-9.227-2.057-14.06 0-27.058 22.013-49.07 49.069-49.07 27.058 0 49.07 22.013 49.07 49.07 0 10.824-3.524 21.175-9.997 29.672zm8.467-83.091c4.664 0 8.459 3.795 8.459 8.46 0 3.091-1.662 5.837-4.205 7.311-3.249-4.458-7.052-8.485-11.317-11.971 1.523-2.325 4.139-3.8 7.063-3.8z"/><path d="m276.464 156.509c-12.934 0-23.455 10.521-23.455 23.455s10.521 23.455 23.455 23.455 23.455-10.521 23.455-23.455-10.522-23.455-23.455-23.455zm0 31.91c-4.662 0-8.455-3.793-8.455-8.455s3.793-8.455 8.455-8.455 8.455 3.793 8.455 8.455-3.793 8.455-8.455 8.455z"/><path d="m221.454 268.156c-4.143 0-7.5 3.357-7.5 7.5s3.357 7.5 7.5 7.5h15.952c4.143 0 7.5-3.357 7.5-7.5s-3.357-7.5-7.5-7.5z"/><path d="m323.183 106.78c4.143 0 7.5-3.357 7.5-7.5s-3.357-7.5-7.5-7.5h-32.59c-4.143 0-7.5 3.357-7.5 7.5s3.357 7.5 7.5 7.5z"/></g></g></svg>