<?xml version="1.0" encoding="iso-8859-1"?>
<!-- Generator: Adobe Illustrator 19.0.0, SVG Export Plug-In . SVG Version: 6.00 Build 0)  -->
<svg version="1.1" id="4th-grade-curriculum/?????" xmlns="http://www.w3.org/2000/svg" xmlns:xlink="http://www.w3.org/1999/xlink" x="0px" y="0px"
	 viewBox="0 0 496.496 496.496" style="enable-background:new 0 0 496.496 496.496;" xml:space="preserve">
<path style="fill:#FFCB57;" d="M162.536,291.312c-2.088-4.144-3.904-8.448-5.384-12.912l-36.904-6.152v-48l36.904-6.152
	c1.48-4.464,3.296-8.768,5.384-12.912l-21.768-30.472l33.944-33.944l30.472,21.768c4.144-2.088,8.448-3.904,12.912-5.384
	l6.152-36.904h48l6.152,36.904c4.464,1.48,8.768,3.296,12.912,5.384l30.472-21.768l33.944,33.944l-21.768,30.472
	c2.088,4.144,3.904,8.448,5.384,12.912l36.904,6.152v48l-36.904,6.152c-1.48,4.464-3.296,8.768-5.384,12.912l21.768,30.472
	l-33.944,33.944l-30.472-21.768c-4.144,2.088-8.448,3.912-12.912,5.384l-6.152,36.904h-48l-6.152-36.904
	c-4.464-1.48-8.768-3.296-12.912-5.384l-30.472,21.768l-33.944-33.944L162.536,291.312z"/>
<g>
	<path style="fill:#3F3A34;" d="M248.248,320.248c39.696,0,72-32.296,72-72s-32.304-72-72-72s-72,32.296-72,72
		S208.552,320.248,248.248,320.248z M240.248,248.248c0-4.416,3.592-8,8-8c4.408,0,8,3.584,8,8c0,4.416-3.592,8-8,8
		S240.248,252.664,240.248,248.248z M248.248,192.248c30.88,0,56,25.128,56,56c0,28.152-20.904,51.456-48,55.36v-32.832
		c9.288-3.312,16-12.112,16-22.528c0-13.232-10.768-24-24-24c-13.232,0-24,10.768-24,24c0,10.416,6.712,19.216,16,22.528v32.832
		c-27.096-3.904-48-27.208-48-55.36C192.248,217.376,217.368,192.248,248.248,192.248z"/>
	<path style="fill:#3F3A34;" d="M341.104,201.584l-14.288,7.2c1.984,3.928,3.648,7.912,4.936,11.824l1.512,4.584l34.984,5.84v34.44
		l-34.984,5.832l-1.512,4.584c-1.288,3.904-2.952,7.888-4.936,11.824l-2.176,4.32l20.64,28.888l-24.352,24.36l-28.896-20.64
		l-4.312,2.168c-3.944,1.984-7.928,3.648-11.832,4.936l-4.584,1.512l-5.832,34.992h-34.448l-5.832-34.984l-4.584-1.512
		c-3.904-1.288-7.888-2.952-11.832-4.936l-4.312-2.168l-28.896,20.64l-29.152-29.152l-11.312,11.312l38.744,38.72l32.16-22.968
		c1.656,0.744,3.32,1.44,4.976,2.08l6.488,38.968h61.552l6.496-38.968c1.656-0.64,3.32-1.336,4.976-2.08l32.16,22.968l43.528-43.512
		l-22.976-32.168c0.744-1.656,1.44-3.312,2.08-4.976l38.96-6.48v-61.56l-38.96-6.488
		C344.072,207.84,342.672,204.696,341.104,201.584z"/>
	<path style="fill:#3F3A34;" d="M112.248,217.464v61.56l38.96,6.488c1.216,3.144,2.616,6.288,4.184,9.4l14.288-7.2
		c-1.984-3.928-3.648-7.912-4.936-11.824l-1.512-4.584l-34.984-5.84v-34.44l34.984-5.832l1.512-4.584
		c1.288-3.904,2.952-7.888,4.936-11.824l2.176-4.32l-20.64-28.888l24.352-24.36l28.896,20.64l4.32-2.176
		c3.896-1.968,7.872-3.624,11.824-4.928l4.584-1.512l5.832-34.992h34.448l5.832,34.984l4.584,1.512
		c3.952,1.304,7.928,2.96,11.824,4.928l4.32,2.176l28.896-20.64l29.152,29.152l11.312-11.312l-38.744-38.736l-32.16,22.976
		c-1.656-0.744-3.312-1.432-4.976-2.08l-6.488-38.96h-61.552l-6.496,38.96c-1.664,0.648-3.328,1.336-4.976,2.08l-32.16-22.976
		l-43.528,43.528l22.976,32.168c-0.744,1.656-1.44,3.312-2.08,4.976L112.248,217.464z"/>
	<rect x="240.248" y="144.248" style="fill:#3F3A34;" width="16" height="16"/>
	
		<rect x="172.367" y="172.368" transform="matrix(-0.7071 0.7071 -0.7071 -0.7071 435.4456 180.3685)" style="fill:#3F3A34;" width="16" height="16"/>
	<rect x="144.248" y="240.248" style="fill:#3F3A34;" width="16" height="16"/>
	
		<rect x="172.363" y="308.124" transform="matrix(-0.7071 0.7071 -0.7071 -0.7071 531.4326 412.1212)" style="fill:#3F3A34;" width="16" height="16"/>
	<rect x="240.248" y="336.248" style="fill:#3F3A34;" width="16" height="16"/>
	
		<rect x="308.119" y="308.128" transform="matrix(-0.7071 0.7071 -0.7071 -0.7071 763.1853 316.1343)" style="fill:#3F3A34;" width="16" height="16"/>
	<rect x="336.248" y="240.248" style="fill:#3F3A34;" width="16" height="16"/>
	
		<rect x="308.131" y="172.372" transform="matrix(-0.7071 0.7071 -0.7071 -0.7071 667.212 84.3759)" style="fill:#3F3A34;" width="16" height="16"/>
	<path style="fill:#3F3A34;" d="M496.008,246.312c-0.416-1.664-43.872-166.064-247.76-166.064S0.904,244.648,0.488,246.312
		L0,248.248l0.488,1.936c0.416,1.664,43.872,166.064,247.76,166.064s247.344-164.4,247.76-166.064l0.488-1.936L496.008,246.312z
		 M16.552,248.288c4.176-13.864,33.76-99.568,133.192-135.84c-42.016,30.568-69.496,79.976-69.496,135.8
		c0,56.2,27.832,105.912,70.344,136.432C49.656,349,20.824,263.12,16.552,248.288z M248.248,96.248c83.816,0,152,68.184,152,152
		s-68.184,152-152,152s-152-68.184-152-152S164.432,96.248,248.248,96.248z M346.752,384.048
		c42.016-30.568,69.496-79.976,69.496-135.8c0-56.2-27.832-105.912-70.344-136.432c100.936,35.68,129.76,121.56,134.032,136.392
		C475.768,262.08,446.184,347.776,346.752,384.048z"/>
</g>
<g>
	<path style="fill:#E56565;" d="M240.248,456.248c0,4.416-3.592,8-8,8H102.776c-3.312-9.288-12.112-16-22.528-16
		c-13.232,0-24,10.768-24,24s10.768,24,24,24c10.416,0,19.216-6.712,22.528-16h129.472c13.232,0,24-10.768,24-24v-24h-16V456.248z
		 M80.248,480.248c-4.408,0-8-3.584-8-8s3.592-8,8-8s8,3.584,8,8S84.656,480.248,80.248,480.248z"/>
	<path style="fill:#E56565;" d="M80.248,424.248c13.232,0,24-10.768,24-24v-8h-16v8c0,4.416-3.592,8-8,8H46.776
		c-3.312-9.288-12.112-16-22.528-16c-13.232,0-24,10.768-24,24s10.768,24,24,24c10.416,0,19.216-6.712,22.528-16H80.248z
		 M24.248,424.248c-4.408,0-8-3.584-8-8s3.592-8,8-8s8,3.584,8,8S28.656,424.248,24.248,424.248z"/>
	<path style="fill:#E56565;" d="M472.248,56.248c-10.416,0-19.216,6.712-22.528,16h-33.472c-13.232,0-24,10.768-24,24v8h16v-8
		c0-4.416,3.592-8,8-8h33.472c3.312,9.288,12.112,16,22.528,16c13.232,0,24-10.768,24-24S485.48,56.248,472.248,56.248z
		 M472.248,88.248c-4.408,0-8-3.584-8-8s3.592-8,8-8s8,3.584,8,8S476.656,88.248,472.248,88.248z"/>
	<path style="fill:#E56565;" d="M416.248,48.248c13.232,0,24-10.768,24-24s-10.768-24-24-24c-10.416,0-19.216,6.712-22.528,16
		H264.248c-13.232,0-24,10.768-24,24v24h16v-24c0-4.416,3.592-8,8-8H393.72C397.032,41.536,405.832,48.248,416.248,48.248z
		 M416.248,16.248c4.408,0,8,3.584,8,8s-3.592,8-8,8s-8-3.584-8-8S411.84,16.248,416.248,16.248z"/>
</g>
<g>
</g>
<g>
</g>
<g>
</g>
<g>
</g>
<g>
</g>
<g>
</g>
<g>
</g>
<g>
</g>
<g>
</g>
<g>
</g>
<g>
</g>
<g>
</g>
<g>
</g>
<g>
</g>
<g>
</g>
</svg>
