<?xml version="1.0" encoding="iso-8859-1"?>
<!-- Generator: Adobe Illustrator 19.0.0, SVG Export Plug-In . SVG Version: 6.00 Build 0)  -->
<svg version="1.1" id="Capa_1" xmlns="http://www.w3.org/2000/svg" xmlns:xlink="http://www.w3.org/1999/xlink" x="0px" y="0px"
	 viewBox="0 0 512 512" style="enable-background:new 0 0 512 512;" xml:space="preserve">
<polyline style="fill:#E7552B;" points="300.138,335.448 300.138,511.999 256,511.999 256,406.068 256,511.999 211.862,511.999 
	211.862,335.448 "/>
<g>
	<path style="fill:#5BD2F3;" d="M388.414,300.137h-35.31v-61.793c0-19.5,15.81-35.31,35.31-35.31h88.276
		c19.5,0,35.31,15.81,35.31,35.31v61.793h-35.31"/>
	<polyline style="fill:#5BD2F3;" points="476.69,238.344 476.69,414.896 432.552,414.896 432.552,308.965 432.552,414.896 
		388.414,414.896 388.414,238.344 	"/>
	<path style="fill:#5BD2F3;" d="M35.31,300.137H0v-61.793c0-19.5,15.81-35.31,35.31-35.31h88.276c19.5,0,35.31,15.81,35.31,35.31
		v61.793h-35.31"/>
	<polyline style="fill:#5BD2F3;" points="123.586,238.344 123.586,414.896 79.448,414.896 79.448,308.965 79.448,414.896 
		35.31,414.896 35.31,238.344 	"/>
</g>
<path style="fill:#E7552B;" d="M361.931,105.93c0-59.948-49.796-108.262-110.283-105.843c-53.795,2.154-98.481,46.151-101.42,99.902
	c-2.242,40.978,18.856,77.144,51.174,96.6c11.679,7.036,19.288,19.209,19.288,32.839v0.088h70.621v-0.097
	c0-13.603,7.565-25.777,19.218-32.786C341.31,178.122,361.931,144.472,361.931,105.93z"/>
<g>
	<path style="fill:#293741;" d="M291.31,264.827H220.69c-9.754,0-17.655-7.901-17.655-17.655l0,0
		c0-9.754,7.901-17.655,17.655-17.655h70.621c9.754,0,17.655,7.901,17.655,17.655l0,0
		C308.966,256.926,301.065,264.827,291.31,264.827z"/>
	<path style="fill:#293741;" d="M291.31,300.137H220.69c-9.754,0-17.655-7.901-17.655-17.655l0,0
		c0-9.754,7.901-17.655,17.655-17.655h70.621c9.754,0,17.655,7.901,17.655,17.655l0,0
		C308.966,292.237,301.065,300.137,291.31,300.137z"/>
</g>
<g>
	<rect x="229.517" y="105.93" style="fill:#FCF9EA;" width="17.655" height="123.586"/>
	<rect x="264.828" y="105.93" style="fill:#FCF9EA;" width="17.655" height="123.586"/>
	<path style="fill:#FCF9EA;" d="M238.345,114.758H220.69c-14.601,0-26.483-11.882-26.483-26.483s11.882-26.483,26.483-26.483
		c14.601,0,26.483,11.882,26.483,26.483v17.655C247.172,110.812,243.226,114.758,238.345,114.758z M220.69,79.448
		c-4.873,0-8.828,3.955-8.828,8.828c0,4.873,3.955,8.828,8.828,8.828h8.828v-8.828C229.517,83.402,225.562,79.448,220.69,79.448z"/>
	<path style="fill:#FCF9EA;" d="M291.31,114.758h-17.655c-4.882,0-8.828-3.946-8.828-8.828V88.275
		c0-14.601,11.882-26.483,26.483-26.483c14.601,0,26.483,11.882,26.483,26.483S305.911,114.758,291.31,114.758z M282.483,97.103
		h8.828c4.873,0,8.828-3.955,8.828-8.828c0-4.873-3.955-8.828-8.828-8.828c-4.873,0-8.828,3.955-8.828,8.828V97.103z"/>
	<rect x="238.345" y="97.103" style="fill:#FCF9EA;" width="35.31" height="17.655"/>
</g>
<path style="fill:#F0A21A;" d="M432.552,35.31c-39,0-70.621,31.62-70.621,70.621c0,29.166,17.682,54.184,42.911,64.962
	c2.851-1.986,6.312-3.169,10.055-3.169h35.31c3.743,0,7.203,1.183,10.055,3.169c25.229-10.778,42.911-35.796,42.911-64.962
	C503.172,66.93,471.552,35.31,432.552,35.31z"/>
<path style="fill:#293741;" d="M450.207,203.034h-35.31c-9.754,0-17.655-7.901-17.655-17.655l0,0
	c0-9.754,7.901-17.655,17.655-17.655h35.31c9.754,0,17.655,7.901,17.655,17.655l0,0
	C467.862,195.133,459.961,203.034,450.207,203.034z"/>
<g>
	<rect x="423.724" y="114.758" style="fill:#FCF9EA;" width="17.655" height="52.966"/>
	<path style="fill:#FCF9EA;" d="M432.552,123.586c-2.26,0-4.52-0.865-6.241-2.586l-26.483-26.483l12.482-12.482l20.242,20.242
		l20.242-20.242l12.482,12.482l-26.483,26.483C437.071,122.72,434.812,123.586,432.552,123.586z"/>
</g>
<path style="fill:#F0A21A;" d="M79.448,35.31c-39,0-70.621,31.62-70.621,70.621c0,29.166,17.682,54.184,42.911,64.962
	c2.851-1.986,6.312-3.169,10.055-3.169h35.31c3.743,0,7.203,1.183,10.055,3.169c25.229-10.778,42.911-35.796,42.911-64.962
	C150.069,66.93,118.449,35.31,79.448,35.31z"/>
<path style="fill:#293741;" d="M97.103,203.034h-35.31c-9.754,0-17.655-7.901-17.655-17.655l0,0c0-9.754,7.901-17.655,17.655-17.655
	h35.31c9.754,0,17.655,7.901,17.655,17.655l0,0C114.759,195.133,106.858,203.034,97.103,203.034z"/>
<g>
	<rect x="70.621" y="114.758" style="fill:#FCF9EA;" width="17.655" height="52.966"/>
	<path style="fill:#FCF9EA;" d="M79.448,123.586c-2.26,0-4.52-0.865-6.241-2.586L46.724,94.516l12.482-12.482l20.242,20.242
		L99.69,82.034l12.482,12.482l-26.483,26.483C83.968,122.72,81.708,123.586,79.448,123.586z"/>
</g>
<polygon style="fill:#ED8B6D;" points="282.483,300.137 229.517,300.137 256,344.275 "/>
<path style="fill:#E7552B;" d="M300.138,300.137h-17.655L256,344.275l-26.483-44.138h-17.655c-19.5,0-35.31,15.81-35.31,35.31
	v61.793h35.31h88.276h35.31v-61.793C335.448,315.948,319.638,300.137,300.138,300.137z"/>
<g>
</g>
<g>
</g>
<g>
</g>
<g>
</g>
<g>
</g>
<g>
</g>
<g>
</g>
<g>
</g>
<g>
</g>
<g>
</g>
<g>
</g>
<g>
</g>
<g>
</g>
<g>
</g>
<g>
</g>
</svg>
